<svg width="188" height="120" viewBox="0 0 188 120" fill="none" xmlns="http://www.w3.org/2000/svg">
<g clip-path="url(#clip0_24_78)">
<path d="M48.7421 80.4958C45.8661 79.4687 43.0929 77.5172 40.6278 74.8467C37.6492 71.6626 35.1841 67.8623 33.8489 63.9592V50.6067C36.9302 44.7522 43.8119 41.0546 54.2885 39.822H70.6196C76.4742 40.8491 79.9664 43.5196 81.1989 47.6281V55.126C79.2474 63.7538 71.544 73.4087 65.3813 77.928C63.9434 78.9551 62.5054 79.7768 60.9647 80.3931H48.7421V80.4958Z" fill="url(#paint0_radial_24_78)"/>
<path d="M57.0616 58.3098C55.4182 57.4881 53.8776 56.7691 53.8776 55.4339C53.8776 54.3041 55.1101 53.7905 56.3427 53.7905C57.5752 53.7905 58.8077 54.2013 59.8348 55.023V53.1742C58.8077 52.558 57.5752 52.3525 56.4454 52.3525C54.1857 52.3525 51.7206 53.4824 51.7206 56.0502C51.7206 58.2071 53.5694 59.0288 55.3155 59.8505C56.8562 60.5695 58.2942 61.2884 58.2942 62.6237C58.2942 63.9589 56.8562 64.2671 55.7264 64.2671C54.6993 64.2671 52.9532 63.8562 51.6179 63.0345V64.9861C52.9532 65.4996 54.1857 65.8078 55.6237 65.8078C57.986 65.8078 60.7593 64.8834 60.7593 62.1101C60.6565 60.1586 58.8077 59.2342 57.0616 58.3098Z" fill="white"/>
<path d="M71.133 62.9318C69.1815 60.7749 67.0246 58.2071 67.0246 58.2071L70.5168 54.9203C72.571 52.9688 73.1873 52.8661 73.29 52.7634H70.0032C69.3869 53.585 68.5652 54.304 68.5652 54.304L64.8676 57.7962V46.7034L61.9917 47.4224C62.4025 47.9359 62.5053 48.7576 62.5053 50.6064V62.1101C62.5053 64.4725 62.4025 64.6779 62.0944 65.2942H65.1758C64.9703 64.7806 64.8676 64.3698 64.8676 62.1101V58.8233C64.8676 58.8233 66.6137 60.8776 68.668 63.3426C70.0032 64.8833 71.0303 65.6023 72.3656 65.6023C73.3927 65.6023 74.3171 65.3969 74.9334 64.8833C74.8306 64.8833 74.6252 64.986 74.5225 64.986C73.8035 64.986 72.571 64.5752 71.133 62.9318Z" fill="white"/>
<path d="M70.0033 39.4108C67.6409 39.1027 65.1758 39 62.9162 39C53.6721 39 38.3681 40.438 33.3353 50.8118C32.5136 52.4552 32 54.6122 32 56.3583C32 62.9318 35.5949 70.0189 40.4223 75.0518C44.9417 79.7765 49.7691 81.8307 55.0074 81.8307C59.0131 81.8307 62.4026 80.4955 65.5867 78.2358C72.7765 72.8948 82.0205 60.7749 82.0205 51.12C81.9178 43.4166 76.3714 40.438 70.0033 39.4108ZM65.2786 77.3114C62.2999 79.4684 59.1159 80.8036 55.4182 80.8036C47.7149 80.8036 41.1413 75.2572 37.4437 68.8891C38.2654 69.5053 39.1898 70.1216 40.2169 70.327C41.5522 70.7379 43.0929 70.9433 44.2227 70.9433C48.6393 70.9433 50.3854 69.2999 50.4881 67.0403C50.4881 65.0887 49.0501 63.9589 46.2769 63.7535L43.401 63.6508C42.0657 63.5481 41.7576 63.1372 41.7576 62.6237C41.7576 62.3155 41.963 61.9047 42.2712 61.6993C42.4766 61.4938 42.7847 61.3911 43.1956 61.2884C43.5037 61.2884 43.8118 61.3911 44.12 61.3911C47.304 61.3911 49.1528 59.4396 49.1528 57.18C49.1528 56.1528 48.742 55.1257 48.1257 54.4067C48.8447 54.4067 50.18 54.5095 50.5908 54.6122V52.9688C49.8718 53.1742 48.9474 53.1742 48.1257 53.1742C47.5094 53.1742 46.8932 53.0715 46.2769 52.8661C45.5579 52.6606 44.7362 52.4552 44.0173 52.4552C40.7305 52.4552 38.779 54.4067 38.779 56.9745C38.779 58.7206 39.9088 60.364 41.5522 60.9803C40.3196 61.5966 39.6007 62.4182 39.6007 63.3426C39.6007 64.3698 40.4223 65.4996 42.1684 65.705C43.1956 65.8077 43.8118 65.8077 45.3525 65.9104C46.8932 66.0132 47.4067 66.0131 47.9203 66.2186C48.4339 66.424 48.8447 66.9376 48.8447 67.4511C48.8447 68.4782 48.1257 68.9918 47.4067 69.2999C46.6878 69.5053 45.5579 69.7108 44.3254 69.7108C39.9088 69.7108 36.622 67.3484 34.7732 63.3426C33.7461 60.9803 33.3353 58.6179 33.3353 56.1528C33.3353 54.5095 33.7461 52.5579 34.4651 51.12C39.2925 41.1569 53.9803 39.5136 63.5325 39.5136C65.7921 39.5136 67.8463 39.5136 70.106 39.9244C76.3714 40.9515 81.4043 43.9302 81.4043 50.9145C81.4043 60.1586 72.3657 71.9704 65.2786 77.3114ZM41.0386 56.5637C41.0386 54.8176 42.0657 53.6878 43.8118 53.6878C45.7634 53.6878 46.8932 55.1257 46.8932 57.0772C46.8932 58.8233 45.9688 59.9532 44.2227 59.9532C42.1684 59.9532 41.0386 58.4125 41.0386 56.5637Z" fill="white"/>
<path d="M155.87 70.6351H153.2C153.302 69.9161 153.61 69.0944 154.638 69.0944C155.459 69.0944 155.87 69.8134 155.87 70.6351ZM157 71.4568C157 71.3541 157 71.2513 157 71.1486C157 69.5052 156.384 68.2727 154.638 68.2727C153.097 68.2727 152.07 69.5052 152.07 71.1486C152.07 72.9974 152.892 74.23 154.843 74.23C155.767 74.23 156.076 74.0246 156.486 73.8191V72.792C156.281 72.9974 155.562 73.4083 154.843 73.4083C153.816 73.4083 153.097 72.5866 153.097 71.4568H157Z" fill="#A19589"/>
<path d="M151.043 74.0247V70.6352C151.043 69.0946 150.427 68.1702 148.989 68.1702C148.167 68.1702 147.551 68.581 147.242 69.1973V68.2729H146.215V73.922H147.242V71.3542C147.242 69.9163 147.653 68.9919 148.886 68.9919C149.81 68.9919 150.016 69.7108 150.016 71.0461V74.0247H151.043Z" fill="#A19589"/>
<path d="M144.777 66.5269C144.777 66.2188 144.572 65.9106 144.161 65.9106C143.853 65.9106 143.545 66.2188 143.545 66.5269C143.545 66.835 143.853 67.1432 144.161 67.1432C144.469 67.1432 144.777 66.835 144.777 66.5269ZM144.675 68.3757H143.647V74.0249H144.675V68.3757Z" fill="#A19589"/>
<path d="M142.62 74.0246C142.209 73.9219 142.107 73.6137 142.107 73.2029V66.2185H141.08V73.4083C141.08 73.9219 141.285 74.23 141.901 74.23C142.209 74.23 142.415 74.1273 142.62 74.0246Z" fill="#A19589"/>
<path d="M140.361 74.0249L137.177 70.0192L140.155 66.3215H138.82L136.15 69.8137V66.3215H135.02V74.0249H136.15V70.3273L138.923 74.0249H140.361Z" fill="#A19589"/>
<path d="M133.479 74.0245V70.635C133.479 69.0944 132.863 68.17 131.425 68.17C130.603 68.17 130.09 68.4781 129.679 69.0944V66.1157H128.652V74.0245H129.679V71.4567C129.679 70.0188 130.09 69.0944 131.322 69.0944C132.247 69.0944 132.452 69.8133 132.452 71.1486V74.1272H133.479V74.0245Z" fill="#A19589"/>
<path d="M127.624 74.0247V73.203C127.419 73.3057 127.214 73.4084 126.905 73.4084C126.392 73.4084 126.084 72.9976 126.084 72.3813V69.3H127.522V68.4783H126.084V66.7322L125.057 67.0403V68.3756H124.03V69.1973H125.057V72.484C125.057 73.6139 125.673 74.1274 126.803 74.1274C127.111 74.2301 127.419 74.1274 127.624 74.0247Z" fill="#A19589"/>
<path d="M123.208 66.5269C123.208 66.2188 122.9 65.9106 122.592 65.9106C122.283 65.9106 121.975 66.2188 121.975 66.5269C121.975 66.835 122.181 67.1432 122.592 67.1432C122.9 67.1432 123.208 66.835 123.208 66.5269ZM123.105 68.3757H122.078V74.0249H123.105V68.3757Z" fill="#A19589"/>
<path d="M120.64 74.0246V70.4296C120.64 69.1971 120.126 68.2727 118.689 68.2727C118.175 68.2727 117.353 68.5808 116.942 69.2998C116.634 68.5808 116.018 68.2727 115.299 68.2727C114.477 68.2727 113.861 68.5808 113.45 69.1971V68.3754H112.423V74.0246H113.45V71.1486C113.45 70.1215 113.861 68.9917 114.888 68.9917C115.71 68.9917 115.915 69.8134 115.915 70.5324V73.9218H116.942V71.0459C116.942 70.0188 117.353 68.889 118.38 68.889C119.202 68.889 119.407 69.7107 119.407 70.4296V73.8191H120.64V74.0246Z" fill="#A19589"/>
<path d="M111.602 71.8676C111.602 70.3269 110.266 69.8133 109.136 69.2998C108.931 69.1971 108.726 69.0944 108.52 68.9916C108.212 68.7862 107.904 68.4781 107.904 68.0672C107.904 67.2455 108.726 67.0401 109.445 67.0401C109.958 67.0401 110.574 67.2456 110.985 67.3483L111.191 66.4239C110.574 66.2184 109.958 66.1157 109.445 66.1157C107.904 66.1157 106.671 66.8347 106.671 68.2727C106.671 69.7106 108.109 70.1215 109.136 70.635C109.753 70.8405 110.369 71.2513 110.369 71.9703C110.369 72.9974 109.342 73.3055 108.623 73.3055C108.007 73.3055 107.288 73.1001 106.774 72.8947L106.671 73.9218C107.082 74.0245 107.904 74.2299 108.417 74.2299C110.266 74.2299 111.602 73.511 111.602 71.8676Z" fill="#A19589"/>
<path d="M100.201 74.0249L98.3518 71.0462L99.9952 68.3757H98.7626L97.7355 70.43L96.6057 68.3757H95.3731L97.0165 71.0462L95.1677 74.0249H96.4003L97.6328 71.8679L98.8653 74.0249H100.201Z" fill="#A19589"/>
<path d="M89.005 74.0246C88.5942 73.9219 88.4915 73.6137 88.4915 73.2029V66.2185H87.4644V73.4083C87.4644 73.9219 87.6698 74.23 88.286 74.23C88.5942 74.23 88.7996 74.1273 89.005 74.0246Z" fill="#A19589"/>
<path d="M86.129 73.8191V70.4296H84.9992V72.9974C84.6911 73.1001 84.4856 73.1001 83.7667 73.1001C82.1233 73.1001 80.788 71.8676 80.788 70.1215C80.788 68.3754 82.0206 67.1428 83.7667 67.1428C84.6911 67.1428 85.5128 67.3483 85.9236 67.6564L86.0263 66.5266C85.41 66.3211 84.8965 66.1157 83.7667 66.1157C81.4043 66.1157 79.6582 67.7591 79.6582 70.1215C79.6582 72.5866 81.3016 74.1272 83.664 74.1272C84.9992 74.2299 85.6155 74.0245 86.129 73.8191Z" fill="#A19589"/>
<path d="M105.953 71.2513C105.953 69.5052 104.925 68.2727 103.282 68.2727C101.536 68.2727 100.509 69.5052 100.509 71.2513C100.509 72.8947 101.536 74.23 103.282 74.23C104.925 74.23 105.953 72.8947 105.953 71.2513ZM104.823 71.2513C104.823 72.2785 104.412 73.4083 103.282 73.4083C102.049 73.4083 101.639 72.2785 101.639 71.2513C101.639 70.2242 102.049 69.0944 103.282 69.0944C104.309 69.0944 104.823 70.1215 104.823 71.2513Z" fill="#A19589"/>
<path d="M94.3459 74.0247C94.3459 73.8193 94.3459 73.6139 94.3459 72.8949V70.5325C94.3459 68.9919 93.7296 68.1702 92.189 68.1702C91.47 68.1702 90.9564 68.3756 90.3401 68.6837L90.4429 69.5054C90.8537 69.1973 91.3673 68.8891 91.9835 68.8891C93.0106 68.8891 93.2161 69.4027 93.2161 70.4298C92.8052 70.4298 92.5998 70.4298 92.189 70.4298C91.1618 70.4298 89.7239 70.8407 89.7239 72.2786C89.7239 73.5112 90.5456 74.0247 91.6754 74.0247C92.5998 74.0247 93.1134 73.5112 93.3188 73.203V73.922H94.3459V74.0247ZM93.2161 71.8678C93.2161 72.6895 92.8052 73.4085 91.6754 73.4085C91.2645 73.4085 90.751 73.1003 90.751 72.4841C90.751 71.4569 91.9835 71.4569 92.5998 71.4569C92.8052 71.4569 93.0106 71.4569 93.2161 71.4569V71.8678Z" fill="#A19589"/>
</g>
<defs>
<radialGradient id="paint0_radial_24_78" cx="0" cy="0" r="1" gradientUnits="userSpaceOnUse" gradientTransform="translate(66.8776 51.0811) scale(31.9434 31.9434)">
<stop stop-color="#FAA71A"/>
<stop offset="0.0501" stop-color="#F99F1C"/>
<stop offset="0.2602" stop-color="#F58120"/>
<stop offset="0.4651" stop-color="#F26922"/>
<stop offset="0.6608" stop-color="#F15523"/>
<stop offset="0.8435" stop-color="#EF4723"/>
<stop offset="1" stop-color="#EF4223"/>
</radialGradient>
<clipPath id="clip0_24_78">
<rect width="125" height="42.9334" fill="white" transform="translate(32 39)"/>
</clipPath>
</defs>
</svg>
