<svg width="17" height="12" viewBox="0 0 17 12" fill="none" xmlns="http://www.w3.org/2000/svg">
<path d="M9.7839 12C9.49651 12 9.22161 11.9164 8.95921 11.7493C8.6968 11.594 8.47813 11.391 8.3032 11.1403C8.14076 10.8896 8.05954 10.6388 8.05954 10.3881C8.05954 10.1015 8.18449 9.79701 8.4344 9.47463C8.68431 9.15224 8.97795 8.83582 9.31532 8.52537C9.6652 8.20298 9.97133 7.92836 10.2337 7.70149H2.49283C1.7806 7.70149 1.27453 7.64776 0.974642 7.5403C0.674752 7.43284 0.437339 7.25373 0.262403 7.00298C0.0874678 6.76418 0 6.42985 0 6C0 5.57015 0.0812201 5.23582 0.24366 4.99701C0.418596 4.75821 0.656009 4.5791 0.955899 4.4597C1.25579 4.35224 1.7681 4.29851 2.49283 4.29851H10.2337L9.31532 3.45672C8.80301 2.9791 8.46564 2.61493 8.3032 2.36418C8.14076 2.10149 8.05954 1.85075 8.05954 1.61194C8.05954 1.36119 8.14076 1.11045 8.3032 0.859702C8.46564 0.608956 8.67806 0.40597 8.94046 0.250746C9.21536 0.0835819 9.49651 0 9.7839 0C10.0338 0 10.3025 0.077612 10.5899 0.232836C10.8773 0.37612 11.2146 0.626866 11.602 0.985075L17 6L11.7144 10.9075C11.2646 11.3134 10.896 11.594 10.6086 11.7493C10.3212 11.9164 10.0463 12 9.7839 12Z" fill="#189E87"/>
</svg>
