<svg width="171" height="50" viewBox="0 0 171 50" fill="none" xmlns="http://www.w3.org/2000/svg">
<path d="M53.6162 32.2095H58.3245C58.5927 34.671 59.8558 35.5422 62.7278 35.5422C65.5221 35.5422 66.6316 34.671 66.6316 33.1941C66.6316 31.7922 65.7514 31.1095 62.7667 30.6172L60.5067 30.2326C56.2589 29.5133 54.0379 27.6576 54.0379 24.3229C54.0379 20.6479 56.9527 18.4133 62.2303 18.4133C68.3164 18.4133 70.8056 21.0268 70.9591 25.0422H66.4024C66.2877 22.5422 64.7176 21.8229 62.2303 21.8229C59.8985 21.8229 58.7851 22.6941 58.7851 24.096C58.7851 25.5345 59.9335 26.1037 62.0768 26.4826L64.566 26.8672C69.3113 27.6999 71.4177 29.4441 71.4177 32.8153C71.4177 36.7556 68.1629 38.9537 62.652 38.9537C57.0246 38.9537 53.9232 36.9441 53.6162 32.2095V32.2095Z" fill="#141423"/>
<path d="M103.344 18.873L96.8365 38.423H91.7843L89.295 30.3845C88.7121 28.4518 88.1466 26.4826 87.6103 24.5499C87.074 26.4826 86.5377 28.4518 85.9644 30.3845L83.5141 38.423H78.4618L71.9541 18.873H77.121L79.3421 26.1807C80.03 28.4172 80.6809 30.7268 81.2853 32.9634C81.8682 30.6903 82.4725 28.4172 83.1624 26.1441L85.3446 18.8691H89.9382L92.1282 26.1538C92.8161 28.4268 93.4301 30.6999 94.0034 32.973C94.6155 30.7364 95.2664 28.4268 95.9563 26.1903L98.1754 18.8826L103.344 18.873Z" fill="#141423"/>
<path d="M105.219 18.8732H110.042V38.4232H105.219V18.8732ZM105.258 11.8655H110.003V16.3347H105.258V11.8655Z" fill="#141423"/>
<path d="M120.339 22.5094V33.0863C120.339 34.3748 120.99 34.7902 122.599 34.7902H124.245V38.4229C123.365 38.4979 122.485 38.5729 121.719 38.5729C117.545 38.5729 115.555 37.1729 115.555 33.5729V22.5094H112.493V18.8729H115.555V13.1902H120.339V18.8729H124.245V22.5094H120.339Z" fill="#141423"/>
<path d="M125.813 28.6539C125.813 22.402 129.68 18.425 135.576 18.425C140.743 18.425 144.188 21.3424 144.763 25.9251H139.94C139.48 23.502 137.719 22.402 135.576 22.402C132.704 22.402 130.753 24.3731 130.753 28.6539C130.753 32.9347 132.781 34.9058 135.576 34.9058C137.758 34.9058 139.633 33.7308 140.016 31.1539H144.839C144.305 35.927 140.628 38.8827 135.576 38.8827C129.719 38.877 125.813 34.9001 125.813 28.6539Z" fill="#141423"/>
<path d="M165.242 25.4653V38.423H160.419V26.2615C160.419 23.7615 159.156 22.548 156.706 22.548C154.601 22.548 152.304 23.9884 152.304 27.473V38.423H147.487V11.448H152.312V21.4865C152.985 20.5281 153.884 19.7468 154.932 19.2106C155.979 18.6744 157.143 18.3994 158.322 18.4095C162.45 18.4192 165.242 20.8057 165.242 25.4653V25.4653Z" fill="#141423"/>
<path d="M5.75952 5.04614V44.8538H45.9834V5.04614H5.75952ZM37.2799 28.2692C37.2799 35.2788 32.8766 38.9923 25.8715 38.9923C19.0198 38.9923 14.463 35.2788 14.463 28.2692V11.4461H19.6261V28.3058C19.6261 32.5481 21.9579 34.5577 25.8656 34.5577C29.7734 34.5577 32.1052 32.5481 32.1052 28.3058V11.4461H37.274L37.2799 28.2692Z" fill="#141423"/>
</svg>
