<svg width="213" height="39" viewBox="0 0 213 39" fill="none" xmlns="http://www.w3.org/2000/svg">
<path d="M50.3387 24.5172C52.2143 25.9564 54.7152 26.5732 56.4867 26.5732C58.8834 26.5732 60.6548 25.4424 60.6548 23.2836C60.6548 20.7136 58.2581 20.3024 55.5489 19.48C52.6312 18.6576 49.9219 17.5268 49.9219 13.8261C49.9219 10.2281 52.527 8.17212 56.4867 8.17212C58.3623 8.17212 60.759 8.68612 62.3221 9.71411V12.4897C60.4464 11.2561 58.1539 10.6393 56.3825 10.6393C54.09 10.6393 52.527 11.5645 52.527 13.6205C52.527 16.0877 54.9236 16.4989 57.3203 17.2185C60.238 18.0408 63.1557 19.1716 63.1557 23.078C63.1557 26.7788 60.4464 28.9376 56.3825 28.9376C54.4026 28.9376 52.0059 28.4236 50.2345 27.3956V24.5172H50.3387ZM85.4552 20.6108C85.4552 19.2744 85.2468 18.452 84.7258 17.938C84.2048 17.3212 83.3711 17.1157 82.6417 17.1157C81.0787 17.1157 79.4114 18.1436 78.3694 19.2744V28.732H75.8685V20.6108C75.8685 19.1716 75.6601 18.452 75.2433 17.938C74.7223 17.3212 73.8886 17.1157 73.1592 17.1157C71.492 17.1157 69.9289 18.1436 68.8869 19.2744V28.732H66.386V15.0597H68.8869V16.7045H68.9911C70.1373 15.5737 71.8046 14.7513 73.6802 14.7513C75.3475 14.7513 77.1189 15.4709 77.9526 17.1157C79.6198 15.5737 81.2871 14.7513 83.2669 14.7513C84.7258 14.7513 86.0804 15.2653 86.914 16.1905C87.7477 17.1157 88.0603 18.3492 88.0603 20.1996V28.732H85.5594V20.6108H85.4552ZM92.1242 28.0124C91.1864 27.3956 90.6654 26.3676 90.6654 25.0312C90.6654 23.4892 91.3948 22.3584 92.541 21.7416C93.583 21.1248 95.0419 20.8164 96.3965 20.8164C97.4386 20.8164 98.4806 20.9192 99.3142 21.2276V20.0968C99.3142 19.0688 99.1058 18.3492 98.4806 17.8352C97.9596 17.3213 97.126 17.1157 95.8755 17.1157C94.1041 17.1157 92.6452 17.7324 91.6032 18.452V15.9849C92.6452 15.3681 94.2083 14.8541 96.1881 14.8541C97.8554 14.8541 99.3142 15.2653 100.356 16.0877C101.19 16.8073 101.711 17.938 101.711 19.6856V25.4424C101.711 26.2648 102.024 26.8816 102.753 26.8816C103.066 26.8816 103.378 26.7788 103.587 26.676V28.732C103.482 28.8348 102.961 28.9376 102.44 28.9376C101.294 28.9376 100.252 28.4236 99.731 27.4984H99.6268C98.7932 28.218 97.2302 29.0404 95.3545 29.0404C94.3125 29.0404 93.062 28.732 92.1242 28.0124ZM99.4184 25.648V23.078C98.689 22.8724 97.5428 22.6668 96.7091 22.6668C95.0419 22.6668 93.2704 23.1808 93.2704 24.8256C93.2704 26.162 94.4167 26.7788 95.8755 26.7788C97.2302 26.7788 98.4806 26.2648 99.4184 25.648ZM106.087 15.0597H108.588V17.0129H108.693C109.63 15.6765 111.193 14.8541 112.756 14.8541C113.069 14.8541 113.382 14.8541 113.694 14.9569V17.424C113.382 17.3212 113.069 17.3213 112.756 17.3213C110.881 17.3213 109.526 18.2464 108.693 19.7884V28.6292H106.192V15.0597H106.087ZM118.383 24.0032V17.3213H115.778V15.0597H118.383V11.3589L120.884 10.9477V15.0597H125.052V17.3213H120.884V23.4892C120.884 25.134 121.093 26.7788 122.968 26.7788C123.698 26.7788 124.531 26.5732 125.052 26.162V28.5264C124.531 28.8348 123.489 29.0404 122.552 29.0404C121.51 29.0404 120.259 28.8348 119.425 27.8068C118.8 26.9844 118.383 25.8536 118.383 24.0032ZM129.221 24.5172C131.096 25.9564 133.597 26.5732 135.369 26.5732C137.765 26.5732 139.537 25.4424 139.537 23.2836C139.537 20.7136 137.14 20.3024 134.431 19.48C131.513 18.6576 128.804 17.5268 128.804 13.8261C128.804 10.2281 131.409 8.17212 135.369 8.17212C137.244 8.17212 139.641 8.68612 141.204 9.71411V12.4897C139.328 11.2561 137.036 10.6393 135.264 10.6393C132.972 10.6393 131.409 11.5645 131.409 13.6205C131.409 16.0877 133.806 16.4989 136.202 17.2185C139.12 18.0408 142.038 19.1716 142.038 23.078C142.038 26.7788 139.328 28.9376 135.264 28.9376C133.285 28.9376 130.888 28.4236 129.116 27.3956V24.5172H129.221ZM144.434 23.3864V15.0597H146.935V22.9752C146.935 24.5172 147.144 25.2368 147.56 25.8536C148.081 26.5732 148.915 26.7788 149.749 26.7788C151.416 26.7788 153.083 25.648 154.125 24.4144V15.0597H156.626V28.732H154.125V26.9844H154.021C152.771 28.218 151.103 29.0404 149.228 29.0404C147.769 29.0404 146.414 28.5264 145.476 27.4984C144.851 26.5732 144.434 25.3396 144.434 23.3864ZM160.065 15.0597H162.566V17.0129H162.67C163.608 15.6765 165.171 14.8541 166.734 14.8541C167.046 14.8541 167.359 14.8541 167.672 14.9569V17.424C167.359 17.3212 167.046 17.3213 166.734 17.3213C164.858 17.3213 163.503 18.2464 162.67 19.7884V28.6292H160.169V15.0597H160.065ZM169.339 15.0597H172.048L174.653 21.2276C175.278 22.7696 175.799 24.106 176.425 25.648H176.529C177.154 24.106 177.779 22.6668 178.405 21.1248L180.905 15.1625H183.51L177.675 28.8348H175.174L169.339 15.0597ZM187.053 22.564C187.47 25.2368 189.45 26.7788 192.159 26.7788C194.035 26.7788 195.702 26.0592 196.953 25.134V27.8068C195.702 28.6292 193.827 29.0404 191.951 29.0404C187.679 29.0404 184.448 26.162 184.448 21.9472C184.448 17.7324 187.679 14.8541 191.326 14.8541C194.66 14.8541 197.682 17.2185 197.682 21.4332C197.682 21.8444 197.682 22.3584 197.578 22.6668H187.053V22.564ZM187.158 20.6108H195.285C195.077 17.938 192.993 17.0129 191.326 17.0129C189.554 17.0129 187.574 18.1436 187.158 20.6108ZM200.808 34.7971L204.56 27.19L198.828 14.9569H201.642L204.039 20.0968C204.664 21.536 205.393 22.9752 205.914 24.2088H206.018C206.644 22.8724 207.269 21.536 207.894 20.0968L210.291 14.9569H213L203.622 34.6943H200.808V34.7971Z" fill="#263146"/>
<path fill-rule="evenodd" clip-rule="evenodd" d="M34.0944 9.91741L38.8281 2.79608L34.7118 14.3553L36.5642 29.4237C36.8729 32.2103 34.9177 34.7905 32.1392 35.2033L8.77918 38.0931C6.00068 38.4027 3.42799 36.4418 3.01636 33.6552L0.032046 10.227C-0.276676 7.44042 1.67857 4.86023 4.45707 4.4474L27.92 1.55759C30.2868 1.24796 32.5508 2.69287 33.374 4.86023L34.0944 9.91741Z" fill="#F35321"/>
<path fill-rule="evenodd" clip-rule="evenodd" d="M10.2541 15.3333L17.6781 23.0793L37.0867 1.30671C38.7836 -0.682138 40.6926 0.992679 39.6321 2.77217L21.178 29.8833C19.6932 31.8721 16.1933 32.0815 14.9206 29.9879L7.28449 18.0549C5.37546 15.3333 8.23901 13.0304 10.2541 15.3333Z" fill="white"/>
</svg>
