<svg width="188" height="120" viewBox="0 0 188 120" fill="none" xmlns="http://www.w3.org/2000/svg">
<g clip-path="url(#clip0_24_28)">
<path d="M136 43H51V77H136V43Z" fill="#1170A8"/>
<path d="M59.307 46.2798H68.5545L74.2218 65.2609H74.3089L78.2079 46.2821H85.1733L79.3042 73.6521H70.1026L64.3023 54.7141H64.2266L60.3827 73.6521H53.3989L59.307 46.2798Z" fill="white"/>
<path d="M87.9049 46.2798H95.329L93.1433 56.7541H101.916L104.102 46.2821H111.524L105.769 73.6521H98.3037L100.769 61.9289H92.0333L89.5746 73.6521H82.1597L87.9049 46.2798Z" fill="white"/>
<path d="M131.044 52.477C129.141 51.6118 127.066 51.1818 124.973 51.219C122.039 51.219 119.656 51.6542 119.656 53.8461C119.656 57.7311 130.408 56.2759 130.408 64.5901C130.408 72.1562 123.298 74.1101 116.877 74.1101C113.957 74.0426 111.061 73.5672 108.276 72.6979L109.996 67.131C111.466 68.0739 114.4 68.7041 116.817 68.7041C119.234 68.7041 122.725 68.2711 122.725 65.4491C122.725 61.0541 111.975 62.7019 111.975 54.9771C111.975 47.921 118.246 45.7971 124.317 45.7971C127.757 45.7971 130.938 46.153 132.803 47.0121L131.044 52.477Z" fill="white"/>
</g>
<defs>
<clipPath id="clip0_24_28">
<rect width="85" height="34" fill="white" transform="translate(51 43)"/>
</clipPath>
</defs>
</svg>
