<svg width="306" height="73" viewBox="0 0 306 73" fill="none" xmlns="http://www.w3.org/2000/svg">
<path fill-rule="evenodd" clip-rule="evenodd" d="M68.6028 25.4568L67.7082 17.8566L66.6864 9.18282C66.5299 7.854 66.1171 6.56948 65.4716 5.40264C64.826 4.23579 63.9603 3.20947 62.924 2.38231C61.8877 1.55514 60.7009 0.943326 59.4316 0.581809C58.1623 0.220292 56.8353 0.116155 55.5264 0.275345L9.59412 5.85137C6.95124 6.1726 4.54225 7.54628 2.89693 9.67031C1.25161 11.7943 0.504684 14.4948 0.820417 17.1778L6.31324 63.8057C6.4695 65.1346 6.88209 66.4191 7.52745 67.586C8.1728 68.7529 9.03828 69.7794 10.0745 70.6067C11.1106 71.434 12.2972 72.0461 13.5664 72.4078C14.8356 72.7695 16.1626 72.8739 17.4715 72.715L63.4038 67.139C64.7127 66.98 65.978 66.5609 67.1274 65.9055C68.2768 65.2502 69.2877 64.3714 70.1025 63.3194C70.9173 62.2673 71.52 61.0627 71.8762 59.7742C72.2324 58.4857 72.335 57.1387 72.1783 55.8099L68.6028 25.4568Z" fill="#005EB8"/>
<path d="M36.7181 18.4688C37.4818 18.4688 38.176 19.0241 38.3843 19.7184L43.8687 40.8229L45.7431 36.8658C46.3679 35.4773 47.7563 34.5748 49.2836 34.5748H57.3367C58.2392 34.5748 59.0028 35.3385 59.0028 36.241C59.0028 37.2129 58.2392 37.9071 57.3367 37.9071H49.2836C49.0754 37.9071 48.8671 38.046 48.7977 38.2542L44.91 46.4461C44.6323 47.0709 43.9381 47.418 43.2439 47.3486C42.5496 47.2792 41.9942 46.7932 41.786 46.1684L36.9264 27.4937L31.7197 52.6941C31.5808 53.4578 30.8866 54.0132 30.123 54.0132C29.3593 54.0826 28.6651 53.5966 28.4568 52.833L24.4997 38.3236C24.4303 38.1154 24.222 37.9071 23.9443 37.9071H16.2384C15.2665 37.9071 14.5723 37.2129 14.5723 36.241C14.5723 35.3385 15.2665 34.5748 16.2384 34.5748H23.9443C25.6799 34.5748 27.2072 35.755 27.6932 37.4906L29.8453 45.2659L35.1214 19.8572C35.2602 19.0936 35.9545 18.5382 36.7181 18.4688Z" fill="white"/>
<path d="M116.774 28.7499C116.564 26.9722 115.71 25.5921 114.213 24.6096C112.716 23.6272 110.879 23.136 108.704 23.136C107.113 23.136 105.722 23.3933 104.529 23.9079C103.347 24.4225 102.423 25.1301 101.757 26.0307C101.102 26.9312 100.774 27.9546 100.774 29.1008C100.774 30.0599 101.002 30.8844 101.459 31.5745C101.926 32.2528 102.523 32.8201 103.248 33.2762C103.973 33.7206 104.733 34.0891 105.529 34.3815C106.324 34.6622 107.055 34.8902 107.722 35.0657L111.371 36.0481C112.306 36.2937 113.347 36.6329 114.493 37.0656C115.651 37.4984 116.757 38.089 117.809 38.8375C118.874 39.5744 119.751 40.5217 120.441 41.6796C121.131 42.8375 121.476 44.2585 121.476 45.9427C121.476 47.8842 120.967 49.6386 119.95 51.2058C118.944 52.7731 117.47 54.0187 115.529 54.9426C113.599 55.8666 111.254 56.3286 108.494 56.3286C105.92 56.3286 103.692 55.9134 101.809 55.083C99.9381 54.2526 98.4644 53.0947 97.3884 51.6093C96.3241 50.124 95.7218 48.3989 95.5814 46.434H100.073C100.19 47.7907 100.646 48.9135 101.441 49.8023C102.248 50.6795 103.266 51.3345 104.494 51.7672C105.733 52.1883 107.067 52.3988 108.494 52.3988C110.154 52.3988 111.646 52.1298 112.967 51.5918C114.289 51.0421 115.336 50.2819 116.108 49.3111C116.879 48.3287 117.265 47.1825 117.265 45.8726C117.265 44.6796 116.932 43.7088 116.265 42.9603C115.599 42.2118 114.722 41.6036 113.634 41.1358C112.546 40.6679 111.371 40.2586 110.108 39.9077L105.687 38.6446C102.88 37.8376 100.657 36.6855 99.02 35.1885C97.3826 33.6914 96.5638 31.7324 96.5638 29.3113C96.5638 27.2997 97.1077 25.5453 98.1954 24.0482C99.2948 22.5395 100.768 21.3699 102.616 20.5395C104.476 19.6974 106.552 19.2764 108.844 19.2764C111.16 19.2764 113.219 19.6916 115.02 20.522C116.821 21.3407 118.248 22.4635 119.3 23.8903C120.365 25.3172 120.926 26.9371 120.985 28.7499H116.774ZM128.068 55.697V28.7499H132.068V32.9604H132.419C132.98 31.5218 133.887 30.4049 135.138 29.6096C136.389 28.8026 137.892 28.3991 139.647 28.3991C141.424 28.3991 142.904 28.8026 144.085 29.6096C145.278 30.4049 146.208 31.5218 146.875 32.9604H147.155C147.845 31.5686 148.881 30.4634 150.261 29.6447C151.641 28.8143 153.296 28.3991 155.226 28.3991C157.635 28.3991 159.606 29.1534 161.138 30.6622C162.67 32.1593 163.436 34.4926 163.436 37.6621V55.697H159.296V37.6621C159.296 35.6738 158.752 34.2528 157.664 33.399C156.576 32.5452 155.296 32.1183 153.822 32.1183C151.927 32.1183 150.459 32.6914 149.419 33.8376C148.378 34.9721 147.857 36.4107 147.857 38.1533V55.697H143.647V37.2411C143.647 35.7089 143.15 34.475 142.155 33.5394C141.161 32.592 139.881 32.1183 138.313 32.1183C137.237 32.1183 136.232 32.4049 135.296 32.978C134.372 33.5511 133.623 34.3464 133.05 35.3639C132.489 36.3697 132.208 37.5335 132.208 38.8551V55.697H128.068ZM178.936 56.3286C177.228 56.3286 175.679 56.007 174.287 55.3637C172.895 54.7087 171.79 53.7672 170.971 52.5392C170.152 51.2994 169.743 49.8023 169.743 48.048C169.743 46.5041 170.047 45.2527 170.655 44.2936C171.263 43.3229 172.076 42.5627 173.094 42.013C174.111 41.4633 175.234 41.0539 176.462 40.7849C177.702 40.5042 178.947 40.282 180.199 40.1182C181.836 39.9077 183.164 39.7498 184.181 39.6446C185.211 39.5276 185.959 39.3346 186.427 39.0656C186.906 38.7966 187.146 38.3288 187.146 37.6621V37.5218C187.146 35.7908 186.673 34.4458 185.725 33.4867C184.79 32.5277 183.368 32.0481 181.462 32.0481C179.485 32.0481 177.936 32.4809 176.813 33.3464C175.69 34.2119 174.901 35.1358 174.445 36.1183L170.515 34.7148C171.217 33.0774 172.152 31.8025 173.322 30.8903C174.503 29.9663 175.79 29.323 177.181 28.9605C178.585 28.5862 179.965 28.3991 181.322 28.3991C182.187 28.3991 183.181 28.5043 184.304 28.7148C185.439 28.9137 186.532 29.3289 187.585 29.9604C188.649 30.592 189.532 31.5452 190.234 32.8201C190.936 34.0949 191.287 35.8025 191.287 37.9428V55.697H187.146V52.0479H186.936C186.655 52.6327 186.187 53.2585 185.532 53.9251C184.877 54.5918 184.006 55.159 182.918 55.6268C181.83 56.0947 180.503 56.3286 178.936 56.3286ZM179.567 52.6093C181.205 52.6093 182.585 52.2877 183.708 51.6444C184.842 51.0012 185.696 50.1708 186.269 49.1532C186.854 48.1357 187.146 47.0655 187.146 45.9427V42.1533C186.971 42.3638 186.585 42.5568 185.988 42.7322C185.404 42.896 184.725 43.0422 183.953 43.1708C183.193 43.2878 182.45 43.3931 181.725 43.4866C181.012 43.5685 180.433 43.6387 179.988 43.6971C178.912 43.8375 177.907 44.0656 176.971 44.3814C176.047 44.6854 175.298 45.1474 174.725 45.7673C174.164 46.3755 173.883 47.2059 173.883 48.2585C173.883 49.6971 174.415 50.7848 175.48 51.5216C176.556 52.2468 177.918 52.6093 179.567 52.6093ZM198.843 55.697V28.7499H202.843V32.8201H203.124C203.615 31.4868 204.504 30.4049 205.791 29.5745C207.077 28.7441 208.528 28.3289 210.142 28.3289C210.446 28.3289 210.826 28.3347 211.282 28.3464C211.738 28.3581 212.083 28.3757 212.317 28.3991V32.6095C212.177 32.5745 211.855 32.5218 211.352 32.4517C210.861 32.3698 210.34 32.3288 209.791 32.3288C208.481 32.3288 207.311 32.6037 206.282 33.1534C205.264 33.6914 204.457 34.4399 203.861 35.399C203.276 36.3463 202.984 37.4282 202.984 38.6446V55.697H198.843ZM230.633 28.7499V32.2587H216.668V28.7499H230.633ZM220.738 22.2939H224.878V47.9778C224.878 49.1474 225.048 50.0246 225.387 50.6094C225.738 51.1824 226.182 51.5684 226.72 51.7672C227.27 51.9544 227.849 52.0479 228.457 52.0479C228.913 52.0479 229.288 52.0245 229.58 51.9778C229.872 51.9193 230.106 51.8725 230.282 51.8374L231.124 55.5567C230.843 55.6619 230.451 55.7672 229.948 55.8725C229.445 55.9894 228.808 56.0479 228.036 56.0479C226.867 56.0479 225.72 55.7964 224.598 55.2935C223.486 54.7906 222.563 54.0245 221.826 52.9953C221.101 51.9661 220.738 50.6678 220.738 49.1006V22.2939ZM238.001 55.697V19.7676H250.141C252.96 19.7676 255.264 20.2763 257.053 21.2939C258.855 22.2997 260.188 23.6623 261.053 25.3816C261.919 27.1008 262.352 29.0189 262.352 31.1359C262.352 33.2528 261.919 35.1768 261.053 36.9077C260.2 38.6387 258.878 40.0188 257.088 41.0481C255.299 42.0656 253.007 42.5744 250.211 42.5744H241.51V38.7147H250.071C252.001 38.7147 253.55 38.3814 254.72 37.7148C255.89 37.0481 256.738 36.1475 257.264 35.013C257.802 33.8668 258.071 32.5745 258.071 31.1359C258.071 29.6973 257.802 28.4108 257.264 27.2763C256.738 26.1418 255.884 25.2529 254.703 24.6096C253.521 23.9547 251.954 23.6272 250.001 23.6272H242.352V55.697H238.001ZM271.466 19.7676L280.729 34.7148H281.009L290.272 19.7676H295.395L284.097 37.7323L295.395 55.697H290.272L281.009 41.0305H280.729L271.466 55.697H266.343L277.922 37.7323L266.343 19.7676H271.466Z" fill="#263146"/>
</svg>
