<svg width="305" height="74" viewBox="0 0 305 74" fill="none" xmlns="http://www.w3.org/2000/svg">
<path fill-rule="evenodd" clip-rule="evenodd" d="M68.6028 25.6819L67.7082 18.0817L66.6864 9.40792C66.5299 8.0791 66.1171 6.79458 65.4716 5.62774C64.826 4.46089 63.9603 3.43457 62.924 2.60741C61.8877 1.78024 60.7009 1.16842 59.4316 0.806907C58.1623 0.44539 56.8353 0.341252 55.5264 0.500442L9.59412 6.07647C6.95124 6.3977 4.54225 7.77138 2.89693 9.89541C1.25161 12.0194 0.504684 14.7199 0.820417 17.4029L6.31324 64.0309C6.4695 65.3597 6.88209 66.6442 7.52745 67.8111C8.1728 68.978 9.03828 70.0045 10.0745 70.8318C11.1106 71.6591 12.2972 72.2712 13.5664 72.6329C14.8356 72.9946 16.1626 73.099 17.4715 72.9401L63.4038 67.3641C64.7127 67.2051 65.978 66.786 67.1274 66.1306C68.2768 65.4753 69.2877 64.5965 70.1025 63.5445C70.9173 62.4924 71.52 61.2878 71.8762 59.9993C72.2324 58.7108 72.335 57.3638 72.1783 56.035L68.6028 25.6819Z" fill="#28BB6B"/>
<path d="M32.5917 51.2764V52.5105L38.1455 48.3452C38.7626 47.8824 39.534 47.5738 40.3825 47.5738H51.1045C51.7215 47.5738 52.3386 47.0339 52.3386 46.3396V24.1243C52.3386 23.5073 51.7215 22.8902 51.1045 22.8902H21.4841C20.7899 22.8902 20.2499 23.5073 20.2499 24.1243V46.3396C20.2499 47.0339 20.7899 47.5738 21.4841 47.5738H28.8892C30.8947 47.5738 32.5917 49.2708 32.5917 51.2764ZM32.5146 57.2159L32.1289 57.4473L30.8176 58.45C30.4319 58.7586 29.9691 58.7586 29.5063 58.6043C29.1206 58.3729 28.8892 57.9872 28.8892 57.4473V55.8274V55.3646V55.2874V54.9789V51.2764H25.1866H21.4841C18.7072 51.2764 16.5474 49.1165 16.5474 46.3396V24.1243C16.5474 21.4246 18.7072 19.1876 21.4841 19.1876H51.1045C53.8042 19.1876 56.0412 21.4246 56.0412 24.1243V46.3396C56.0412 49.1165 53.8042 51.2764 51.1045 51.2764H40.3825L32.5917 57.1387L32.5146 57.2159ZM31.3575 32.7636C29.9691 32.7636 28.8892 31.6837 28.8892 30.2953C28.8892 28.9839 29.9691 27.8269 31.3575 27.8269C32.6689 27.8269 33.8259 28.9839 33.8259 30.2953C33.8259 31.6837 32.6689 32.7636 31.3575 32.7636ZM41.231 32.7636C39.8425 32.7636 38.7626 31.6837 38.7626 30.2953C38.7626 28.9839 39.8425 27.8269 41.231 27.8269C42.5423 27.8269 43.6994 28.9839 43.6994 30.2953C43.6994 31.6837 42.5423 32.7636 41.231 32.7636ZM28.1178 37.6232C28.8892 36.929 30.0462 37.0061 30.7405 37.7003C32.0518 39.2431 34.0573 40.1687 36.2171 40.1687C38.4541 40.1687 40.3825 39.2431 41.771 37.7003C42.4652 37.0061 43.6222 36.929 44.3936 37.6232C45.165 38.2403 45.2421 39.4745 44.5479 40.1687C42.4652 42.4828 39.534 43.8713 36.2171 43.8713C32.9774 43.8713 29.9691 42.4828 27.9635 40.1687C27.2693 39.4745 27.3465 38.2403 28.1178 37.6232Z" fill="white"/>
<path d="M116.774 27.2619C116.564 25.4841 115.71 24.104 114.213 23.1216C112.716 22.1391 110.879 21.6479 108.704 21.6479C107.113 21.6479 105.722 21.9052 104.529 22.4198C103.347 22.9345 102.423 23.6421 101.757 24.5426C101.102 25.4432 100.774 26.4666 100.774 27.6128C100.774 28.5718 101.002 29.3964 101.459 30.0864C101.926 30.7648 102.523 31.332 103.248 31.7882C103.973 32.2326 104.733 32.601 105.529 32.8934C106.324 33.1741 107.055 33.4022 107.722 33.5776L111.371 34.5601C112.306 34.8057 113.347 35.1449 114.493 35.5776C115.651 36.0103 116.757 36.601 117.809 37.3495C118.874 38.0863 119.751 39.0337 120.441 40.1916C121.131 41.3495 121.476 42.7705 121.476 44.4547C121.476 46.3962 120.967 48.1506 119.95 49.7178C118.944 51.285 117.47 52.5306 115.529 53.4546C113.599 54.3786 111.254 54.8406 108.494 54.8406C105.92 54.8406 103.692 54.4254 101.809 53.595C99.9381 52.7646 98.4644 51.6067 97.3884 50.1213C96.3241 48.6359 95.7218 46.9108 95.5814 44.9459H100.073C100.19 46.3026 100.646 47.4254 101.441 48.3143C102.248 49.1915 103.266 49.8465 104.494 50.2792C105.733 50.7002 107.067 50.9108 108.494 50.9108C110.154 50.9108 111.646 50.6418 112.967 50.1038C114.289 49.5541 115.336 48.7938 116.108 47.8231C116.879 46.8406 117.265 45.6945 117.265 44.3845C117.265 43.1916 116.932 42.2208 116.265 41.4723C115.599 40.7237 114.722 40.1156 113.634 39.6477C112.546 39.1799 111.371 38.7705 110.108 38.4197L105.687 37.1565C102.88 36.3495 100.657 35.1975 99.02 33.7004C97.3826 32.2034 96.5638 30.2443 96.5638 27.8233C96.5638 25.8116 97.1077 24.0573 98.1954 22.5602C99.2948 21.0514 100.768 19.8819 102.616 19.0515C104.476 18.2094 106.552 17.7883 108.844 17.7883C111.16 17.7883 113.219 18.2035 115.02 19.0339C116.821 19.8526 118.248 20.9754 119.3 22.4023C120.365 23.8292 120.926 25.4491 120.985 27.2619H116.774ZM128.068 54.209V27.2619H132.068V31.4724H132.419C132.98 30.0338 133.887 28.9169 135.138 28.1215C136.389 27.3145 137.892 26.911 139.647 26.911C141.424 26.911 142.904 27.3145 144.085 28.1215C145.278 28.9169 146.208 30.0338 146.875 31.4724H147.155C147.845 30.0806 148.881 28.9753 150.261 28.1566C151.641 27.3262 153.296 26.911 155.226 26.911C157.635 26.911 159.606 27.6654 161.138 29.1742C162.67 30.6712 163.436 33.0045 163.436 36.1741V54.209H159.296V36.1741C159.296 34.1858 158.752 32.7648 157.664 31.911C156.576 31.0572 155.296 30.6303 153.822 30.6303C151.927 30.6303 150.459 31.2034 149.419 32.3496C148.378 33.4841 147.857 34.9226 147.857 36.6653V54.209H143.647V35.753C143.647 34.2209 143.15 32.987 142.155 32.0513C141.161 31.104 139.881 30.6303 138.313 30.6303C137.237 30.6303 136.232 30.9168 135.296 31.4899C134.372 32.063 133.623 32.8583 133.05 33.8759C132.489 34.8817 132.208 36.0454 132.208 37.3671V54.209H128.068ZM178.936 54.8406C177.228 54.8406 175.679 54.5189 174.287 53.8757C172.895 53.2207 171.79 52.2792 170.971 51.0511C170.152 49.8114 169.743 48.3143 169.743 46.5599C169.743 45.0161 170.047 43.7646 170.655 42.8056C171.263 41.8348 172.076 41.0746 173.094 40.5249C174.111 39.9752 175.234 39.5659 176.462 39.2969C177.702 39.0162 178.947 38.7939 180.199 38.6302C181.836 38.4197 183.164 38.2618 184.181 38.1565C185.211 38.0396 185.959 37.8466 186.427 37.5776C186.906 37.3086 187.146 36.8407 187.146 36.1741V36.0337C187.146 34.3028 186.673 32.9577 185.725 31.9987C184.79 31.0396 183.368 30.5601 181.462 30.5601C179.485 30.5601 177.936 30.9929 176.813 31.8583C175.69 32.7238 174.901 33.6478 174.445 34.6302L170.515 33.2267C171.217 31.5893 172.152 30.3145 173.322 29.4022C174.503 28.4783 175.79 27.835 177.181 27.4724C178.585 27.0982 179.965 26.911 181.322 26.911C182.187 26.911 183.181 27.0163 184.304 27.2268C185.439 27.4256 186.532 27.8408 187.585 28.4724C188.649 29.104 189.532 30.0572 190.234 31.332C190.936 32.6069 191.287 34.3145 191.287 36.4548V54.209H187.146V50.5599H186.936C186.655 51.1447 186.187 51.7704 185.532 52.4371C184.877 53.1037 184.006 53.671 182.918 54.1388C181.83 54.6066 180.503 54.8406 178.936 54.8406ZM179.567 51.1213C181.205 51.1213 182.585 50.7997 183.708 50.1564C184.842 49.5131 185.696 48.6827 186.269 47.6652C186.854 46.6477 187.146 45.5775 187.146 44.4547V40.6653C186.971 40.8758 186.585 41.0688 185.988 41.2442C185.404 41.4079 184.725 41.5541 183.953 41.6828C183.193 41.7998 182.45 41.905 181.725 41.9986C181.012 42.0805 180.433 42.1506 179.988 42.2091C178.912 42.3495 177.907 42.5775 176.971 42.8933C176.047 43.1974 175.298 43.6594 174.725 44.2793C174.164 44.8874 173.883 45.7178 173.883 46.7705C173.883 48.209 174.415 49.2968 175.48 50.0336C176.556 50.7587 177.918 51.1213 179.567 51.1213ZM198.843 54.209V27.2619H202.843V31.332H203.124C203.615 29.9987 204.504 28.9169 205.791 28.0865C207.077 27.256 208.528 26.8408 210.142 26.8408C210.446 26.8408 210.826 26.8467 211.282 26.8584C211.738 26.8701 212.083 26.8876 212.317 26.911V31.1215C212.177 31.0864 211.855 31.0338 211.352 30.9636C210.861 30.8817 210.34 30.8408 209.791 30.8408C208.481 30.8408 207.311 31.1157 206.282 31.6654C205.264 32.2034 204.457 32.9519 203.861 33.911C203.276 34.8583 202.984 35.9402 202.984 37.1565V54.209H198.843ZM230.633 27.2619V30.7706H216.668V27.2619H230.633ZM220.738 20.8058H224.878V46.4898C224.878 47.6593 225.048 48.5365 225.387 49.1213C225.738 49.6944 226.182 50.0804 226.72 50.2792C227.27 50.4663 227.849 50.5599 228.457 50.5599C228.913 50.5599 229.288 50.5365 229.58 50.4897C229.872 50.4312 230.106 50.3845 230.282 50.3494L231.124 54.0686C230.843 54.1739 230.451 54.2792 229.948 54.3844C229.445 54.5014 228.808 54.5599 228.036 54.5599C226.867 54.5599 225.72 54.3084 224.598 53.8055C223.486 53.3026 222.563 52.5365 221.826 51.5073C221.101 50.478 220.738 49.1798 220.738 47.6126V20.8058ZM266.334 29.5075H261.983C261.726 28.256 261.276 27.1566 260.632 26.2093C260.001 25.2619 259.229 24.4666 258.317 23.8233C257.416 23.1684 256.416 22.6772 255.317 22.3497C254.217 22.0222 253.071 21.8584 251.878 21.8584C249.703 21.8584 247.732 22.4081 245.966 23.5076C244.211 24.607 242.814 26.2268 241.773 28.3672C240.744 30.5075 240.229 33.1332 240.229 36.2443C240.229 39.3553 240.744 41.981 241.773 44.1214C242.814 46.2617 244.211 47.8816 245.966 48.981C247.732 50.0804 249.703 50.6301 251.878 50.6301C253.071 50.6301 254.217 50.4663 255.317 50.1389C256.416 49.8114 257.416 49.326 258.317 48.6827C259.229 48.0278 260.001 47.2266 260.632 46.2792C261.276 45.3202 261.726 44.2208 261.983 42.981H266.334C266.007 44.8173 265.41 46.4605 264.545 47.9108C263.679 49.3611 262.603 50.595 261.317 51.6125C260.03 52.6184 258.586 53.3844 256.983 53.9107C255.393 54.4371 253.691 54.7002 251.878 54.7002C248.814 54.7002 246.089 53.9517 243.703 52.4546C241.317 50.9576 239.44 48.8289 238.071 46.0687C236.703 43.3085 236.019 40.0337 236.019 36.2443C236.019 32.4548 236.703 29.18 238.071 26.4198C239.44 23.6596 241.317 21.531 243.703 20.0339C246.089 18.5368 248.814 17.7883 251.878 17.7883C253.691 17.7883 255.393 18.0515 256.983 18.5778C258.586 19.1041 260.03 19.876 261.317 20.8935C262.603 21.8994 263.679 23.1274 264.545 24.5777C265.41 26.0163 266.007 27.6596 266.334 29.5075ZM275.18 18.2795L284.443 33.2267H284.724L293.987 18.2795H299.11L287.812 36.2443L299.11 54.209H293.987L284.724 39.5425H284.443L275.18 54.209H270.058L281.636 36.2443L270.058 18.2795H275.18Z" fill="#263146"/>
</svg>
