<svg width="188" height="120" viewBox="0 0 188 120" fill="none" xmlns="http://www.w3.org/2000/svg">
<g clip-path="url(#clip0_24_74)">
<path d="M143.516 63.2587C141.909 64.7735 141.328 65.9915 141.328 67.6621C141.328 70.2568 143.603 70.819 146.215 71.8367C148.154 72.5911 149.649 73.176 149.649 74.9315C149.649 78.5133 143.384 79.8338 141.965 81.3003C141.316 81.9728 140.988 82.6238 140.988 83.6149C140.988 84.1297 141.019 85.2727 142.407 85.2727C144.084 85.2727 147.572 83.2283 149.437 81.8388C151.497 80.3072 152.6 78.4867 152.6 76.0675C152.6 74.0518 151.39 72.3919 150.073 71.5823C148.892 70.8554 147.146 70.5063 145.897 69.9984C143.584 69.0527 144.265 67.8554 145.269 66.7795C148.343 63.4905 150.909 64.4816 152.294 62.9412C152.881 62.2844 153 61.241 153 60.9254C153 59.8297 152.201 59.0753 151.331 59.0753C150.488 59.0753 146.243 60.6877 143.516 63.2587V63.2587ZM134.641 64.385C135.447 64.385 135.231 65.3199 135.231 65.6424C135.231 67.03 132.426 74.4462 130.684 74.4462C130.297 74.4462 130.08 74.2174 130.08 73.4442C130.08 71.5724 132.801 64.385 134.641 64.385ZM116.464 66.4176C117.614 66.5606 117.526 67.1907 118.786 67.5773C120.044 67.9648 120.817 67.7706 121.493 67.7706C122.172 67.7706 122.194 68.0616 122.194 69.3209C122.194 70.9324 121.514 74.9087 118.481 74.9087C115.547 74.9087 115.265 71.2253 115.265 69.6099C115.265 67.5773 115.69 66.3189 116.464 66.4176V66.4176ZM117.683 64.2045C117.683 63.172 118.52 62.8012 119.293 62.8012C120.196 62.8012 121.493 63.8889 121.493 64.8574C121.493 65.4047 121.053 66.0783 120.054 66.0783C119.183 66.0783 117.683 65.3653 117.683 64.2045ZM50.9728 85.3565H52.7253C54.4797 85.3565 54.7085 84.5084 54.7085 82.4778C54.7085 82.4778 54.6957 66.7312 54.6957 65.668C54.6957 64.6039 54.9077 64.384 55.9777 64.24C57.0547 64.0941 60.1612 63.7804 60.9373 63.7804C61.5705 63.7804 62.0675 63.9343 61.9896 65.1592C61.9896 65.1592 61.9896 80.7352 61.9896 82.7678C61.9896 84.8023 62.2282 85.1888 63.103 85.1888H64.7342C65.8821 85.1888 66.1267 84.0903 66.1267 82.7678C66.1267 81.6061 66.1139 66.1276 66.1139 64.8682C66.1139 63.7696 66.2667 63.4323 67.5646 63.2864C67.9886 63.2361 69.9817 63.0911 70.8792 63.0911C72.962 63.0911 73.5301 63.6562 72.681 64.9777C72.1001 65.8821 70.1898 70.5448 70.1898 73.0951C70.1898 74.3505 70.891 76.7696 72.6336 76.7696C74.3742 76.7696 76.0754 74.1967 77.181 72.3545C78.1238 70.7834 78.606 70.8121 79.1139 72.6089C79.4187 73.672 79.6968 75.964 80.9611 76.6533C81.3782 76.8811 82.041 76.955 82.5903 76.6454C85.1189 75.2283 87.541 69.532 88.5479 65.1937C89.1396 62.6503 91.1446 62.9837 91.0173 65.1573V72.8141C91.0173 74.0212 91.5598 75.9443 92.9799 76.6691C93.6298 76.9996 94.6554 76.892 95.331 76.6163C98.1456 75.4703 100.55 66.3027 100.983 64.7819C101.516 62.9003 103.399 63.35 103.301 65.0611V72.7643C103.301 74.4812 104.039 76.1982 105.054 76.6756C105.878 77.064 106.919 77.0049 107.686 76.6093C108.674 76.1043 109.521 74.7089 110.172 73.6704C110.974 72.3933 111.504 72.4022 112.496 73.8657C113.039 74.6694 114.53 76.9002 117.625 76.9002C122.01 76.9002 123.972 72.2848 123.972 69.4268C123.972 68.0757 124.127 67.1477 124.806 66.7907C125.521 66.4159 126.617 65.8952 127.202 65.8952C128.13 65.8952 127.634 67.127 127.54 67.4909C127.359 68.2049 126.814 70.4298 126.814 71.9416C126.814 74.4258 127.718 76.8519 129.813 76.8519C131.891 76.8519 133.635 74.1427 134.217 73.2119C134.909 72.0984 135.524 72.125 135.644 73.2726C135.741 74.1927 135.717 74.5063 135.717 74.5063C135.717 76.1187 136.199 76.8407 137.06 76.8407H138.099C138.946 76.8407 139.878 76.0744 139.878 74.1059C139.878 74.1059 139.878 45.4184 139.878 43.6787C139.878 42.1294 139.572 41.8404 138.51 41.8404H137.654C136.587 41.8404 136.004 42.3227 136.004 43.6787V59.738C136.004 60.5131 135.729 60.8879 135.149 60.8879C134.096 60.8879 133.709 60.9924 133.106 61.2863C130.735 62.4471 127.993 63.8001 126.174 64.3928C124.389 64.9737 123.937 65.1147 123.428 64.3189C122.312 62.5605 121.097 60.7065 117.817 60.7065C115.62 60.7065 113.918 61.7814 112.722 63.385C111.454 65.0852 111.179 66.9619 110.622 68.6286C109.389 72.3239 107.369 74.7135 107.369 71.8318L107.357 68.5921L107.44 65.5803C107.44 63.4629 105.104 62.7745 103.716 62.3524C102.029 61.8376 101.9 60.8998 101.9 59.2429C101.9 57.5654 101.707 56.2074 100.256 56.2074C99.5154 56.2074 97.6318 56.7597 97.6318 59.2429C97.6318 61.0802 99.4819 61.8436 99.4819 63.4757C99.4819 64.5753 98.2698 68.3722 97.4848 70.2115C96.9671 71.4343 96.2087 72.9837 95.7294 72.9837C95.2738 72.9837 95.1525 72.4817 95.1525 71.4699V65.1453C95.1525 63.1493 92.4907 62.4728 91.0173 61.9649C89.7027 61.5112 89.6741 60.6907 89.6741 59.0142C89.6741 56.4658 88.7757 55.953 87.8714 55.953C86.7116 55.953 85.4039 56.7962 85.4039 58.8929C85.4039 61.0802 87.2313 61.456 87.2313 63.3189C87.2313 64.4925 85.4423 70.0418 84.3526 71.8219C83.5686 73.0981 83.181 73.0379 82.7914 71.8937C82.3329 70.5466 81.964 66.2152 81.606 65.2665C81.2569 64.3345 79.8555 64.3355 79.3062 65.2526C78.5567 66.511 76.2007 71.2162 74.6277 73.1393C74.5034 73.2901 73.3594 74.6916 73.3594 73.2369C73.3594 71.4292 75.8742 67.6008 77.894 65.5199C79.4857 63.8818 81.4354 63.511 81.4354 62.0238C81.4354 60.4449 79.4542 60.513 78.0035 60.513C73.7076 60.513 68.9807 60.8276 67.4087 60.8996C66.1809 60.9567 66.1484 60.7881 66.1484 59.3996V35.6469C66.1484 34.6923 65.6691 34 64.6513 34C64.6375 34 64.1316 34.001 64.1316 34.001C62.5349 34.001 61.9895 34.5335 61.9895 36.9053V59.6421C61.9895 60.9646 61.7193 61.369 60.6463 61.5041L55.9895 61.9646C55.023 62.0494 54.8297 61.8315 54.8297 60.1263C54.8297 60.1263 54.8297 38.646 54.8297 36.9053C54.8297 33.9773 53.3712 34.001 52.6295 34.001H51.2873C50.5753 34.001 49.025 34.711 49.025 36.9053V60.8995C49.025 62.4962 48.8968 62.7289 47.4757 62.9321C46.1216 63.1244 38.8405 63.9962 36.3957 64.2851C35.4894 64.3946 35.1373 64.4863 35.0199 64.8956C34.9835 65.0248 35.0061 65.508 35.0166 65.6303C35.0521 66.1057 35.5788 66.3769 36.1902 66.3059C37.4516 66.1609 46.5581 65.0603 46.5581 65.0603C48.4358 64.8187 48.926 64.8759 48.926 66.3542V82.8632C48.926 84.3454 49.6479 85.3543 50.9724 85.3543" fill="black"/>
</g>
<defs>
<clipPath id="clip0_24_74">
<rect width="118" height="51.3565" fill="white" transform="translate(35 34)"/>
</clipPath>
</defs>
</svg>
