<svg xmlns="http://www.w3.org/2000/svg" xmlns:xlink="http://www.w3.org/1999/xlink" viewBox="0,0,256,256" width="32px" height="32px" fill-rule="nonzero"><g fill="#4c5567" fill-rule="nonzero" stroke="none" stroke-width="1" stroke-linecap="butt" stroke-linejoin="miter" stroke-miterlimit="10" stroke-dasharray="" stroke-dashoffset="0" font-family="none" font-weight="none" font-size="none" text-anchor="none" style="mix-blend-mode: normal"><g transform="scale(8,8)"><path d="M16.06641,2.65234l-2.24219,2.00391l-2.9375,-0.65234l-0.94141,2.85547l-2.875,0.90625l0.61719,2.94922l-2.03516,2.21875l2.00391,2.24219l-0.65234,2.9375l2.85547,0.94531l0.14063,0.4375v9.98047l6,-2.39844l6,2.39844v-10.16406l0.05859,-0.17187l2.86719,-0.90625l-0.61328,-2.94922l2.03516,-2.21875l-2.00391,-2.24219l0.65234,-2.94141l-2.85547,-0.9375l-0.90625,-2.875l-2.94922,0.61719zM16.05078,5.34766l1.64063,1.50391l0.5,-0.10547l1.67969,-0.34766l0.66406,2.125l2.11719,0.69531l-0.48047,2.17188l1.48047,1.66016l-1.50391,1.64063l0.45313,2.17969l-2.12109,0.66406l-0.69922,2.11719l-2.17187,-0.48047l-1.66016,1.48047l-1.64062,-1.50391l-2.17969,0.45313l-0.12891,-0.41406v-0.1875h-0.05859l-0.47656,-1.51953l-2.11719,-0.69922l0.48047,-2.17187l-1.48047,-1.66016l1.50391,-1.64062l-0.45312,-2.17578l2.12109,-0.67187l0.69922,-2.11328l2.17188,0.48047zM16,8c-2.75,0 -5,2.25 -5,5c0,2.75 2.25,5 5,5c2.75,0 5,-2.25 5,-5c0,-2.75 -2.25,-5 -5,-5zM16,10c1.66797,0 3,1.33203 3,3c0,1.66797 -1.33203,3 -3,3c-1.66797,0 -3,-1.33203 -3,-3c0,-1.66797 1.33203,-3 3,-3zM13.71484,21.3125l2.21875,2.03516l2.24219,-2.00391l1.82422,0.40625v4.77344l-4,-1.60156l-4,1.60156v-4.85156z"></path></g></g></svg>