<svg width="188" height="120" viewBox="0 0 188 120" fill="none" xmlns="http://www.w3.org/2000/svg">
<g clip-path="url(#clip0_24_43)">
<path d="M75.6453 46.6929H79.4142C81.1797 46.6929 83.1039 47.069 83.1039 49.2662C83.1039 50.3945 82.4096 51.1665 81.3582 51.4832V51.503C82.6873 51.6811 83.5799 52.6511 83.5799 53.9773C83.5799 56.0954 81.5764 56.7882 79.7911 56.7882H75.6453V46.6929ZM77.8868 50.7112H79.4936C80.1879 50.7112 80.902 50.4341 80.902 49.6225C80.902 48.8109 80.1085 48.5734 79.3944 48.5734H77.8868V50.7112ZM77.8868 54.8879H79.8903C80.5846 54.8879 81.3781 54.591 81.3781 53.7002C81.3781 52.7501 80.3069 52.5917 79.5729 52.5917H77.8868V54.8879Z" fill="#8B2388"/>
<path d="M85.7422 46.4353C85.9893 46.4353 86.2309 46.5085 86.4364 46.6455C86.642 46.7825 86.8021 46.9773 86.8967 47.2052C86.9913 47.433 87.0161 47.6838 86.9678 47.9257C86.9196 48.1676 86.8006 48.3898 86.6258 48.5642C86.4511 48.7386 86.2284 48.8574 85.986 48.9055C85.7435 48.9536 85.4923 48.9289 85.2639 48.8345C85.0356 48.7401 84.8404 48.5803 84.7031 48.3752C84.5657 48.1701 84.4924 47.929 84.4924 47.6824C84.4917 47.5184 84.5234 47.3559 84.586 47.2042C84.6485 47.0526 84.7405 46.9148 84.8567 46.7988C84.9729 46.6829 85.111 46.591 85.263 46.5286C85.415 46.4662 85.5778 46.4345 85.7422 46.4353V46.4353ZM84.671 49.84H86.8133V56.7682H84.671V49.84Z" fill="#8B2388"/>
<path d="M88.3408 49.8402H90.4832V50.9487H90.503C90.9593 50.1173 91.5544 49.662 92.5065 49.662C92.747 49.6568 92.9872 49.6834 93.2206 49.7412V51.7009C92.9239 51.6147 92.6171 51.5681 92.3082 51.5623C90.6815 51.5623 90.4832 52.5125 90.4832 53.8783V56.7683H88.3408V49.8402Z" fill="#8B2388"/>
<path d="M94.1528 49.8401H96.2158V50.7902H96.2357C96.4419 50.441 96.7387 50.1538 97.0948 49.9587C97.4509 49.7636 97.853 49.6679 98.259 49.6817C99.231 49.6817 100.024 50.0776 100.401 50.9288C100.897 50.038 101.572 49.6817 102.603 49.6817C104.488 49.6817 105.063 51.008 105.063 52.6905V56.788H102.921V52.7499C102.921 52.1165 102.683 51.5622 101.988 51.5622C100.996 51.5622 100.679 52.255 100.679 53.1062V56.7682H98.5367V53.1062C98.5367 52.5916 98.5566 51.5622 97.5846 51.5622C96.4737 51.5622 96.2952 52.4332 96.2952 53.324V56.7682H94.1528V49.8401Z" fill="#8B2388"/>
<path d="M107.681 46.4355C107.929 46.4355 108.17 46.5087 108.376 46.6457C108.581 46.7827 108.741 46.9775 108.836 47.2054C108.931 47.4333 108.955 47.684 108.907 47.9259C108.859 48.1678 108.74 48.39 108.565 48.5644C108.39 48.7388 108.168 48.8576 107.925 48.9057C107.683 48.9538 107.431 48.9291 107.203 48.8348C106.975 48.7404 106.78 48.5805 106.642 48.3754C106.505 48.1704 106.432 47.9293 106.432 47.6826C106.434 47.3525 106.566 47.0365 106.8 46.8031C107.034 46.5697 107.351 46.4376 107.681 46.4355V46.4355ZM106.61 49.8402H108.753V56.7684H106.61V49.8402Z" fill="#8B2388"/>
<path d="M110.3 49.8401H112.343V50.7902H112.363C112.569 50.441 112.866 50.1538 113.222 49.9587C113.578 49.7636 113.98 49.6679 114.386 49.6817C116.548 49.6817 116.965 51.1069 116.965 52.9676V56.788H114.823V53.4031C114.823 52.6113 114.803 51.582 113.712 51.582C112.621 51.582 112.422 52.453 112.422 53.3437V56.788H110.28V49.8401H110.3Z" fill="#8B2388"/>
<path d="M125.495 56.1944C125.495 58.8073 124.166 60.1929 121.488 60.1929C120.258 60.1929 119.008 59.9752 117.996 59.1834L119.187 57.4216C119.805 57.9854 120.61 58.3025 121.448 58.3124C122.757 58.3124 123.352 57.5998 123.352 56.6101V55.937H123.333C123.098 56.2302 122.799 56.4651 122.458 56.6231C122.117 56.7811 121.744 56.858 121.369 56.8476C119.306 56.8476 117.957 55.363 117.957 53.2647C117.957 51.4238 119.147 49.6621 121.131 49.6621C122.341 49.6621 123.174 50.256 123.491 50.7508H123.511V49.8403H125.475V56.1944H125.495ZM121.805 54.9671C122.143 54.9671 122.472 54.8673 122.753 54.6802C123.033 54.4931 123.252 54.2273 123.381 53.9162C123.51 53.6051 123.544 53.2629 123.478 52.9326C123.412 52.6024 123.25 52.2991 123.011 52.061C122.773 51.8229 122.469 51.6608 122.138 51.5951C121.807 51.5294 121.464 51.5631 121.152 51.692C120.841 51.8208 120.574 52.039 120.387 52.319C120.199 52.5989 120.099 52.9281 120.099 53.2647C120.102 53.7153 120.283 54.1465 120.602 54.4651C120.922 54.7836 121.354 54.964 121.805 54.9671" fill="#8B2388"/>
<path d="M129.343 46V50.7903H129.363C129.561 50.2559 130.256 49.6818 131.307 49.6818C133.469 49.6818 133.886 51.107 133.886 52.9677V56.7881H131.743V53.4032C131.743 52.6114 131.723 51.5821 130.632 51.5821C129.541 51.5821 129.343 52.4531 129.343 53.3438V56.7881H127.201V46.0198H129.343V46Z" fill="#8B2388"/>
<path d="M139.757 55.8973H139.718C139.241 56.6297 138.389 56.9266 137.516 56.9266C136.206 56.9266 135.036 56.1942 135.036 54.7888C135.036 52.3936 137.952 52.354 139.737 52.354C139.737 51.6018 139.103 51.1069 138.369 51.1069C138.035 51.1109 137.706 51.1873 137.404 51.3309C137.103 51.4744 136.836 51.6817 136.623 51.9383L135.473 50.7704C136.318 50.0361 137.407 49.6411 138.527 49.6619C141.027 49.6619 141.701 50.9288 141.701 53.2448V56.7682H139.737V55.8973H139.757ZM139.222 53.7396C138.567 53.7396 137.099 53.799 137.099 54.7294C137.099 55.244 137.635 55.4816 138.111 55.4816C138.944 55.4816 139.737 55.0461 139.737 54.1949V53.7396H139.222Z" fill="#8B2388"/>
<path d="M143.09 49.8401H145.153V50.7902H145.173C145.379 50.441 145.676 50.1538 146.032 49.9587C146.388 49.7636 146.79 49.6679 147.196 49.6817C148.168 49.6817 148.961 50.0776 149.338 50.9288C149.834 50.038 150.509 49.6817 151.54 49.6817C153.425 49.6817 154 51.008 154 52.6905V56.788H151.858V52.7499C151.858 52.1165 151.62 51.5622 150.925 51.5622C149.933 51.5622 149.616 52.255 149.616 53.1062V56.7682H147.474V53.1062C147.474 52.5916 147.494 51.5622 146.522 51.5622C145.411 51.5622 145.232 52.4332 145.232 53.324V56.7682H143.09V49.8401Z" fill="#8B2388"/>
<path d="M84.7107 67.9722C84.0363 69.0015 82.6477 69.8329 80.9616 69.8329C77.9464 69.8329 75.6851 67.5961 75.6851 64.5279C75.6851 61.4597 77.9464 59.2229 80.9616 59.2229C82.2113 59.2229 83.58 59.698 84.4528 60.8263L83.5602 61.4993C83.1635 60.8461 82.0328 60.173 80.9616 60.173C78.363 60.173 76.8157 62.2119 76.8157 64.5279C76.8157 66.8439 78.363 68.8827 80.9616 68.8827C82.0129 68.8827 83.104 68.5462 83.8577 67.3783L84.7107 67.9722Z" fill="#8B2388"/>
<path d="M86.476 61.0241C86.3387 61.0241 86.2045 60.9834 86.0903 60.9073C85.9761 60.8312 85.8871 60.723 85.8346 60.5964C85.782 60.4698 85.7683 60.3305 85.7951 60.1961C85.8219 60.0617 85.888 59.9382 85.9851 59.8413C86.0822 59.7445 86.2059 59.6785 86.3406 59.6517C86.4752 59.625 86.6148 59.6387 86.7417 59.6912C86.8686 59.7436 86.977 59.8324 87.0533 59.9463C87.1296 60.0603 87.1703 60.1942 87.1703 60.3312C87.1648 60.5133 87.0899 60.6863 86.9609 60.8151C86.8318 60.9438 86.6584 61.0186 86.476 61.0241V61.0241ZM86.9521 69.5754H85.9999V62.9046H86.9521V69.5754Z" fill="#8B2388"/>
<path d="M92.0898 63.7558H90.1657V67.695C90.1657 68.6847 90.5426 68.8827 91.1377 68.8827C91.4782 68.8796 91.8124 68.7911 92.1097 68.6253L92.1493 69.4963C91.7477 69.664 91.315 69.745 90.8798 69.7338C90.1657 69.7338 89.2334 69.4171 89.2334 67.9523V63.7558H87.825V62.9047H89.2334V61.0242H90.1657V62.9047H92.0898V63.7558V63.7558Z" fill="#8B2388"/>
<path d="M96.1168 68.4273L98.16 62.9045H99.3105L95.9779 71.3173C95.5812 72.3466 95.0258 72.9999 93.8753 72.9999C93.5812 73.005 93.2878 72.9717 93.0024 72.9009L93.1016 71.9903C93.3222 72.1031 93.5681 72.1576 93.8157 72.1487C94.4704 72.1487 94.8076 71.7132 95.1051 70.961L95.5812 69.6743L92.8438 62.9243H94.0339L96.1168 68.4273Z" fill="#8B2388"/>
<path d="M111.708 67.9722C111.034 69.0015 109.645 69.8329 107.959 69.8329C104.944 69.8329 102.683 67.5961 102.683 64.5279C102.683 61.4597 104.944 59.2229 107.959 59.2229C109.209 59.2229 110.578 59.698 111.45 60.8263L110.558 61.4993C110.161 60.8461 109.03 60.173 107.959 60.173C105.361 60.173 103.813 62.2119 103.813 64.5279C103.813 66.8439 105.361 68.8827 107.959 68.8827C109.011 68.8827 110.102 68.5462 110.855 67.3783L111.708 67.9722Z" fill="#8B2388"/>
<path d="M116.271 69.7537C114.208 69.7537 112.72 68.2493 112.72 66.25C112.72 64.2507 114.188 62.7463 116.271 62.7463C118.354 62.7463 119.821 64.2507 119.821 66.25C119.821 68.2493 118.354 69.7537 116.271 69.7537ZM116.271 63.5975C114.723 63.5975 113.751 64.7456 113.751 66.25C113.751 67.7544 114.723 68.9025 116.271 68.9025C117.818 68.9025 118.79 67.7544 118.79 66.25C118.79 64.7456 117.838 63.5975 116.271 63.5975Z" fill="#8B2388"/>
<path d="M126.07 69.5756C126.037 69.2203 126.024 68.8635 126.03 68.5067H126.011C125.771 68.8852 125.441 69.1978 125.049 69.4156C124.658 69.6335 124.217 69.7498 123.769 69.7538C122.063 69.7538 121.25 68.8036 121.25 67.1409V62.9048H122.202V66.5866C122.202 68.0712 122.618 68.8828 124.007 68.8828C124.205 68.8828 126.03 68.7442 126.03 66.3095V62.885H126.983V68.091C126.983 68.4473 127.022 69.0808 127.062 69.5558H126.07V69.5756Z" fill="#8B2388"/>
<path d="M130.077 62.9047C130.11 63.26 130.123 63.6169 130.117 63.9736H130.137C130.376 63.5951 130.706 63.2826 131.098 63.0647C131.49 62.8468 131.93 62.7305 132.378 62.7266C134.084 62.7266 134.897 63.6767 134.897 65.3395V69.5755H133.945V65.8937C133.945 64.4091 133.529 63.5975 132.14 63.5975C131.942 63.5975 130.117 63.7361 130.117 66.1708V69.5953H129.165V64.3695C129.165 64.0132 129.125 63.3798 129.085 62.9047H130.077Z" fill="#8B2388"/>
<path d="M141.959 64.4684C141.778 64.1934 141.53 63.9678 141.239 63.8123C140.948 63.6567 140.623 63.5761 140.293 63.5777C138.746 63.5579 137.774 64.706 137.774 66.2302C137.774 67.7544 138.726 68.9025 140.293 68.8827C140.623 68.8843 140.948 68.8036 141.239 68.6481C141.53 68.4925 141.778 68.267 141.959 67.9919L142.733 68.5858C142.436 68.9442 142.063 69.2329 141.641 69.4313C141.22 69.6298 140.759 69.7331 140.293 69.7338C138.111 69.7536 136.742 68.2294 136.742 66.2302C136.742 64.2309 138.091 62.7067 140.293 62.7265C140.758 62.7318 141.217 62.8371 141.638 63.0352C142.059 63.2333 142.433 63.5196 142.733 63.8746L141.959 64.4684Z" fill="#8B2388"/>
<path d="M144.637 61.0241C144.5 61.0241 144.366 60.9834 144.251 60.9073C144.137 60.8312 144.048 60.723 143.996 60.5964C143.943 60.4698 143.929 60.3305 143.956 60.1961C143.983 60.0617 144.049 59.9382 144.146 59.8413C144.243 59.7445 144.367 59.6785 144.502 59.6517C144.636 59.625 144.776 59.6387 144.903 59.6912C145.03 59.7436 145.138 59.8324 145.214 59.9463C145.291 60.0603 145.331 60.1942 145.331 60.3312C145.332 60.4224 145.314 60.5127 145.28 60.597C145.245 60.6813 145.194 60.7579 145.129 60.8223C145.065 60.8867 144.988 60.9378 144.903 60.9724C144.819 61.007 144.728 61.0246 144.637 61.0241ZM145.113 69.5754H144.161V62.9046H145.113V69.5754Z" fill="#8B2388"/>
<path d="M148.406 58.8071H147.454V69.5755H148.406V58.8071Z" fill="#8B2388"/>
<path d="M70.9441 46.6731H69.9919V69.6152H70.9441V46.6731Z" fill="#8B2388"/>
<path d="M65.3896 49.4048C65.3886 48.7141 65.1267 48.0493 64.656 47.5429C64.1853 47.0365 63.5406 46.7259 62.8505 46.6731H57.693C57.3148 46.6714 56.9407 46.75 56.5953 46.9036C56.2499 47.0571 55.9411 47.2822 55.6895 47.5639L41.2881 61.9151L48.2706 68.863C48.7767 69.3755 49.4655 69.6673 50.1866 69.6747C50.9076 69.6822 51.6023 69.4046 52.1189 68.9026L64.5961 56.4715L64.6556 56.4121C65.1497 55.9021 65.4269 55.2212 65.4293 54.5118V49.4048H65.3896Z" fill="#8B2388"/>
<path d="M48.6278 51.4634L44.7001 47.5639C44.4456 47.2858 44.1363 47.0631 43.7916 46.9098C43.4468 46.7565 43.074 46.676 42.6966 46.6731H37.5391C36.8477 46.7223 36.2008 47.0318 35.7294 47.5389C35.258 48.0461 34.9973 48.713 35 49.4048V54.492C35.0024 55.2013 35.2796 55.8823 35.7737 56.3923L39.741 60.3512L48.6278 51.4634Z" fill="#8B2388"/>
</g>
<defs>
<clipPath id="clip0_24_43">
<rect width="119" height="27" fill="white" transform="translate(35 46)"/>
</clipPath>
</defs>
</svg>
