<svg width="85" height="34" viewBox="0 0 85 34" fill="none" xmlns="http://www.w3.org/2000/svg">
<g clip-path="url(#clip0_2991_2199)">
<path d="M85 0H0V34H85V0Z" fill="#1170A8"/>
<path d="M8.30702 3.27979H17.5545L23.2218 22.2609H23.3089L27.2079 3.28205H34.1733L28.3042 30.6521H19.1026L13.3023 11.7141H13.2266L9.38268 30.6521H2.39893L8.30702 3.27979Z" fill="white"/>
<path d="M36.9049 3.27979H44.329L42.1433 13.7541H50.916L53.1017 3.28205H60.5236L54.7691 30.6521H47.3037L49.7693 18.9289H41.0333L38.5746 30.6521H31.1597L36.9049 3.27979Z" fill="white"/>
<path d="M80.0436 9.47699C78.1414 8.61177 76.0663 8.18176 73.9727 8.21899C71.0393 8.21899 68.6563 8.65419 68.6563 10.8461C68.6563 14.7311 79.4083 13.2759 79.4083 21.5901C79.4083 29.1562 72.2984 31.1101 65.8766 31.1101C62.9566 31.0426 60.061 30.5672 57.2759 29.6979L58.996 24.131C60.4662 25.0739 63.3996 25.7041 65.8169 25.7041C68.2343 25.7041 71.725 25.2711 71.725 22.4491C71.725 18.0541 60.9753 19.7019 60.9753 11.9771C60.9753 4.92099 67.2458 2.79712 73.3167 2.79712C76.757 2.79712 79.9381 3.15299 81.8027 4.01205L80.0436 9.47699Z" fill="white"/>
</g>
<defs>
<clipPath id="clip0_2991_2199">
<rect width="85" height="34" fill="white"/>
</clipPath>
</defs>
</svg>
