<svg width="592" height="299" viewBox="0 0 592 299" fill="none" xmlns="http://www.w3.org/2000/svg">
<path d="M484.5 13.4001C484.5 6.3001 490.2 0.600098 497.3 0.600098C504.4 0.600098 510.1 6.4001 510.1 13.4001V24.8001C510.1 31.9001 504.4 37.6001 497.3 37.6001C490.2 37.6001 484.5 31.9001 484.5 24.8001V13.4001Z" fill="#00AAC8"/>
<path d="M572.3 49.7001C570.1 42.9001 562.9 39.3001 556.1 41.5001L497.2 60.7001L438.3 41.5001C431.6 39.3001 424.3 42.9001 422.1 49.7001C419.9 56.4001 423.6 63.7001 430.3 65.8001L476.4 80.8001L448 119.8C443.8 125.5 445.1 133.5 450.8 137.7C456.6 141.9 464.6 140.6 468.7 134.9L497.1 95.8001L525.5 134.9C529.7 140.6 537.7 141.9 543.4 137.7C549.1 133.5 550.4 125.5 546.2 119.8L517.9 80.7001L563.8 65.7001C570.8 63.7001 574.5 56.4001 572.3 49.7001Z" fill="#00AAC8"/>
<path d="M358.6 43.6C358.6 38.2 363 33.8 368.3 33.8C373.7 33.8 378.1 38.2 378.1 43.6V52.2C378.1 57.6 373.8 62 368.3 62C362.9 62 358.6 57.6 358.6 52.2V43.6Z" fill="#00AAC8"/>
<path d="M425.5 71.3C423.8 66.1 418.3 63.4 413.2 65L368.4 79.6L323.6 65C318.5 63.3 313 66.1 311.3 71.3C309.6 76.4 312.4 81.9 317.5 83.6L352.6 95.1L331 124.7C327.8 129.1 328.8 135.2 333.2 138.3C337.6 141.5 343.7 140.5 346.8 136.2L368.4 106.4L390 136.2C393.2 140.5 399.3 141.5 403.7 138.3C408.1 135.1 409 129 405.8 124.7L384.3 95L419.3 83.6C424.4 81.9 427.2 76.4 425.5 71.3Z" fill="#00AAC8"/>
<path d="M264.9 68.2001C264.9 64.2001 268.2 60.9001 272.2 60.9001C276.3 60.9001 279.5 64.2001 279.5 68.2001V74.6002C279.5 78.6002 276.3 81.9001 272.2 81.9001C268.2 81.9001 264.9 78.6002 264.9 74.6002V68.2001Z" fill="#00AAC8"/>
<path d="M314.8 88.8001C313.5 85.0001 309.5 82.9001 305.6 84.1001L272.2 95.0001L238.8 84.1001C235 82.8001 230.9 84.9001 229.6 88.8001C228.3 92.6001 230.4 96.7001 234.3 98.0001L260.5 106.6L244.4 128.8C242 132.1 242.8 136.6 246 139C249.3 141.4 253.8 140.6 256.2 137.4L272.3 115.2L288.4 137.4C290.8 140.6 295.3 141.4 298.6 139C301.9 136.6 302.6 132.1 300.2 128.8L284 106.5L310.1 98.0001C313.9 96.7001 316 92.6001 314.8 88.8001Z" fill="#00AAC8"/>
<path d="M68.4999 298.4C24.1999 298.4 0.399902 269.3 0.399902 215.6C0.399902 162.4 25.1999 132.8 68.9999 132.8C112.6 132.8 136.9 162.6 136.9 215.8C136.9 269.2 112.8 298.4 68.4999 298.4ZM69.2999 152.1C41.3999 152.1 26.8999 173.5 26.8999 215.6C26.8999 236.3 30.9999 255.3 37.9999 265.2C44.2999 274.3 55.5999 279.4 68.9999 279.4C96.8999 279.4 110.4 258.9 110.4 215.9C110.4 173 97.1999 152.1 69.2999 152.1Z" fill="#002E6E"/>
<path d="M224.4 140.3C222.2 139.8 214.5 138.9 204.7 138.9C192.4 138.9 189.3 143.7 189.3 159.8V181.7H221.1V197.8H189.3V295.5H166V197.8H146V184.1L166 181.5V162.7C166 145.9 167.2 139.8 171.5 133.6C177 125.4 185.7 121.3 197.7 121.3C209.7 121.3 223.2 124.7 226.8 125.6L224.4 140.3Z" fill="#002E6E"/>
<path d="M261.5 297.9C249.9 297.9 239.8 296.2 225.4 292.6L229.3 276.7C240.9 279.3 249.5 280.3 257.5 280.3C273.4 280.3 281.6 274.5 281.6 263.9C281.6 255 278.2 251.4 262.6 247.1C241.7 241.3 226.5 234.3 226.5 213.9C226.5 192 241.7 179.3 266.7 179.3C276.1 179.3 287.2 181.2 299.7 185.3L296.3 200.2C288.4 198.5 278 196.6 269.6 196.6C257.3 196.6 250.1 201.7 250.1 211.3C250.1 235.4 305.7 219.7 305.7 260.4C305.5 284.2 289.4 297.9 261.5 297.9Z" fill="#002E6E"/>
<path d="M352.7 298.1C341.6 298.1 333.5 293.5 329.4 285.6C326.8 280.5 326 274.8 326 259.4V197.8H306.7V184.8L326 182.4V150.9H349.6V181.7H380.9V197.8H349.6V252.7C349.6 271.9 349.8 272.4 351.5 275.3C353.2 278.2 356.6 279.6 361.6 279.6C367.1 279.6 372.4 278.6 381.6 276.2L385.2 290.6C371.4 295.9 362.1 298.1 352.7 298.1Z" fill="#002E6E"/>
<path d="M411.1 241.6V245.5C411.1 268.4 420.7 278.7 438.5 278.7C448.8 278.7 458.2 276.8 476.8 270.8L481.1 284.8C457.5 295.1 446 298.3 432.3 298.3C404.4 298.3 386.1 277.6 386.1 242.5C386.1 204.2 404.9 179.2 436.4 179.2C467 179.2 482.4 197.7 482.4 236.5V241.8H411.1V241.6ZM438.3 195.6C422.9 195.6 413.8 206.7 411.8 227.8L459.9 225.9C459.5 205.2 452.8 195.6 438.3 195.6Z" fill="#002E6E"/>
<path d="M569.2 295.5V285.2C555.7 292.9 542.7 298.2 531.4 298.2C506.9 298.2 492.4 275.8 492.4 239C492.4 202.7 509 179.1 534 179.1C546.3 179.1 557.8 185.6 567.9 191.6V124.7H591.5V295.5H569.2ZM568 205.7C553.6 200.6 549 199.4 542 199.4C526.1 199.4 517.5 212.4 517.5 237.9C517.5 265.3 525.4 277.8 541.1 277.8C547.6 277.8 554.1 276.4 568.1 271.1V205.7H568Z" fill="#002E6E"/>
</svg>
