<svg width="73" height="73" viewBox="0 0 73 73" fill="none" xmlns="http://www.w3.org/2000/svg">
<path fill-rule="evenodd" clip-rule="evenodd" d="M68.4626 25.4741L67.5681 17.8739L66.5463 9.20003C66.3898 7.87121 65.977 6.58669 65.3314 5.41985C64.6859 4.253 63.8202 3.22669 62.7839 2.39952C61.7475 1.57235 60.5608 0.960538 59.2915 0.599021C58.0222 0.237504 56.6952 0.133367 55.3862 0.292556L9.45398 5.86858C6.8111 6.18982 4.40211 7.56349 2.75679 9.68752C1.11147 11.8115 0.364548 14.512 0.68028 17.195L6.17311 63.823C6.32936 65.1518 6.74195 66.4363 7.38731 67.6032C8.03266 68.7702 8.89814 69.7966 9.93432 70.6239C10.9705 71.4512 12.1571 72.0633 13.4263 72.425C14.6955 72.7867 16.0224 72.8911 17.3314 72.7322L63.2636 67.1562C64.5726 66.9972 65.8379 66.5781 66.9873 65.9227C68.1366 65.2674 69.1476 64.3886 69.9624 63.3366C70.7772 62.2846 71.3799 61.0799 71.7361 59.7914C72.0922 58.503 72.1949 57.1559 72.0382 55.8271L68.4626 25.4741Z" fill="#C83472"/>
<path d="M23.8736 30.7047C21.9722 30.7047 20.2675 29.7212 19.284 28.082C18.3661 26.5084 18.3661 24.4759 19.284 22.8367C20.2675 21.2632 21.9722 20.2141 23.8736 20.2141C25.7095 20.2141 27.4142 21.2632 28.3977 22.8367C29.3156 24.4759 29.3156 26.5084 28.3977 28.082C27.4142 29.7212 25.7095 30.7047 23.8736 30.7047ZM48.0019 30.7047C46.1005 30.7047 44.3957 29.7212 43.4123 28.082C42.4943 26.5084 42.4943 24.4759 43.4123 22.8367C44.3957 21.2632 46.1005 20.2141 48.0019 20.2141C49.8377 20.2141 51.5424 21.2632 52.5259 22.8367C53.4438 24.4759 53.4438 26.5084 52.5259 28.082C51.5424 29.7212 49.8377 30.7047 48.0019 30.7047ZM14.4321 39.8183C14.4321 35.9499 17.5137 32.8028 21.3821 32.8028H24.2014C25.2505 32.8028 26.234 33.065 27.1519 33.4584C27.0208 33.9174 27.0208 34.4419 27.0208 34.9009C27.0208 37.4579 28.0698 39.6872 29.8401 41.1952H29.7746H15.809C15.0222 41.1952 14.4321 40.6051 14.4321 39.8183ZM40.9863 41.1952H40.9208C42.691 39.6872 43.8057 37.4579 43.8057 34.9009C43.8057 34.4419 43.7401 33.9174 43.6745 33.4584C44.5269 33.065 45.5104 32.8028 46.5594 32.8028H49.3788C53.2471 32.8028 56.3943 35.9499 56.3943 39.8183C56.3943 40.6051 55.7387 41.1952 54.9519 41.1952H40.9863ZM35.4132 31.7537C34.233 31.7537 33.2495 32.4094 32.6595 33.3273C32.0694 34.3108 32.0694 35.5565 32.6595 36.4745C33.2495 37.4579 34.233 38.048 35.4132 38.048C36.5278 38.048 37.5113 37.4579 38.1014 36.4745C38.6915 35.5565 38.6915 34.3108 38.1014 33.3273C37.5113 32.4094 36.5278 31.7537 35.4132 31.7537ZM35.4132 41.1952C33.1184 41.1952 31.0859 40.015 29.9057 38.048C28.7911 36.1466 28.7911 33.7207 29.9057 31.7537C31.0859 29.8523 33.1184 28.6065 35.4132 28.6065C37.6425 28.6065 39.675 29.8523 40.8552 31.7537C41.9698 33.7207 41.9698 36.1466 40.8552 38.048C39.675 40.015 37.6425 41.1952 35.4132 41.1952ZM31.5448 46.4405C28.9222 46.4405 26.7585 48.2763 26.1029 50.6367H44.658C44.0024 48.2763 41.8387 46.4405 39.216 46.4405H31.5448ZM31.5448 43.2933H39.216C44.0679 43.2933 48.0019 47.2273 48.0019 52.0791C48.0019 53.0626 47.2151 53.7839 46.2316 53.7839H24.5293C23.5458 53.7839 22.8246 52.9971 22.8246 52.0791C22.8246 47.2273 26.693 43.2933 31.5448 43.2933Z" fill="white"/>
</svg>
