<svg width="73" height="74" viewBox="0 0 73 74" fill="none" xmlns="http://www.w3.org/2000/svg">
<path fill-rule="evenodd" clip-rule="evenodd" d="M68.4626 26.2262L67.5681 18.5694L66.5463 9.83092C66.3898 8.49219 65.977 7.1981 65.3314 6.02256C64.6859 4.84702 63.8202 3.81306 62.7839 2.97972C61.7475 2.14639 60.5608 1.53002 59.2915 1.16581C58.0222 0.801598 56.6952 0.696684 55.3862 0.85706L9.45398 6.47464C6.8111 6.79827 4.40211 8.18218 2.75679 10.322C1.11147 12.4619 0.364548 15.1825 0.68028 17.8855L6.17311 64.8609C6.32936 66.1996 6.74195 67.4937 7.38731 68.6693C8.03266 69.845 8.89814 70.879 9.93432 71.7125C10.9705 72.546 12.1571 73.1626 13.4263 73.527C14.6955 73.8915 16.0224 73.9966 17.3314 73.8365L63.2636 68.219C64.5726 68.0588 65.8379 67.6366 66.9873 66.9763C68.1366 66.3161 69.1476 65.4307 69.9624 64.3709C70.7772 63.311 71.3799 62.0974 71.7361 60.7993C72.0922 59.5012 72.1949 58.1441 72.0382 56.8055L68.4626 26.2262Z" fill="#00A2B8"/>
<path d="M19.9062 24.8503V36.012C19.9062 36.8998 20.541 37.534 21.4297 37.534H24.4766C25.3018 37.534 26 38.2316 26 39.0561V40.3244L29.6816 37.7877C29.9355 37.6609 30.2529 37.534 30.5703 37.534H38.6953C39.5205 37.534 40.2188 36.8998 40.2188 36.012V24.8503C40.2188 24.0259 39.5205 23.3283 38.6953 23.3283H21.4297C20.541 23.3283 19.9062 24.0259 19.9062 24.8503ZM21.4297 20.2842H38.6953C41.1709 20.2842 43.2656 22.377 43.2656 24.8503V36.012C43.2656 38.5487 41.1709 40.5781 38.6953 40.5781H31.0146L25.3018 44.3832C24.8574 44.7003 24.2227 44.7637 23.7148 44.5101C23.207 44.193 22.9531 43.6856 22.9531 43.1149V40.5781H21.4297C18.8906 40.5781 16.8594 38.5487 16.8594 36.012V24.8503C16.8594 22.377 18.8906 20.2842 21.4297 20.2842ZM33.1094 44.1296V42.6075H36.1562V44.1296C36.1562 45.0174 36.791 45.6516 37.6797 45.6516H43.7734C44.0273 45.6516 44.3447 45.7784 44.5986 45.9053L48.3438 48.442V47.1737C48.3438 46.3492 48.9785 45.6516 49.8672 45.6516H52.9141C53.7393 45.6516 54.4375 45.0174 54.4375 44.1296V32.9679C54.4375 32.1435 53.7393 31.4458 52.9141 31.4458H45.2969V28.4018H52.9141C55.3896 28.4018 57.4844 30.4946 57.4844 32.9679V44.1296C57.4844 46.6663 55.3896 48.6957 52.9141 48.6957H51.3906V51.2324C51.3906 51.8032 51.0732 52.3106 50.5654 52.6276C50.0576 52.8813 49.4863 52.8179 48.9785 52.5008L43.2656 48.6957H37.6797C35.1406 48.6957 33.1094 46.6663 33.1094 44.1296Z" fill="white"/>
</svg>
