<svg width="73" height="74" viewBox="0 0 73 74" fill="none" xmlns="http://www.w3.org/2000/svg">
<path fill-rule="evenodd" clip-rule="evenodd" d="M68.4626 26.1655L67.5681 18.5653L66.5463 9.89144C66.3898 8.56262 65.977 7.2781 65.3314 6.11126C64.6859 4.94441 63.8202 3.91809 62.7839 3.09093C61.7475 2.26376 60.5608 1.65194 59.2915 1.29043C58.0222 0.92891 56.6952 0.824773 55.3862 0.983963L9.45398 6.55999C6.8111 6.88122 4.40211 8.2549 2.75679 10.3789C1.11147 12.503 0.364548 15.2034 0.68028 17.8864L6.17311 64.5144C6.32936 65.8432 6.74195 67.1277 7.38731 68.2946C8.03266 69.4616 8.89814 70.488 9.93432 71.3153C10.9705 72.1427 12.1571 72.7547 13.4263 73.1164C14.6955 73.4782 16.0224 73.5825 17.3314 73.4236L63.2636 67.8476C64.5726 67.6886 65.8379 67.2695 66.9873 66.6142C68.1366 65.9588 69.1476 65.08 69.9624 64.028C70.7772 62.976 71.3799 61.7713 71.7361 60.4828C72.0922 59.1944 72.1949 57.8473 72.0382 56.5185L68.4626 26.1655Z" fill="#28BB6B"/>
<path d="M32.4516 51.7599V52.9941L38.0054 48.8287C38.6225 48.3659 39.3939 48.0573 40.2424 48.0573H50.9643C51.5814 48.0573 52.1985 47.5174 52.1985 46.8231V24.6079C52.1985 23.9908 51.5814 23.3737 50.9643 23.3737H21.344C20.6497 23.3737 20.1098 23.9908 20.1098 24.6079V46.8231C20.1098 47.5174 20.6497 48.0573 21.344 48.0573H28.749C30.7546 48.0573 32.4516 49.7543 32.4516 51.7599ZM32.3745 57.6994L31.9888 57.9308L30.6775 58.9336C30.2918 59.2421 29.829 59.2421 29.3661 59.0878C28.9805 58.8564 28.749 58.4707 28.749 57.9308V56.3109V55.8481V55.771V55.4624V51.7599H25.0465H21.344C18.567 51.7599 16.4072 49.6001 16.4072 46.8231V24.6079C16.4072 21.9081 18.567 19.6711 21.344 19.6711H50.9643C53.6641 19.6711 55.901 21.9081 55.901 24.6079V46.8231C55.901 49.6001 53.6641 51.7599 50.9643 51.7599H40.2424L32.4516 57.6222L32.3745 57.6994ZM31.2174 33.2471C29.829 33.2471 28.749 32.1672 28.749 30.7788C28.749 29.4675 29.829 28.3104 31.2174 28.3104C32.5287 28.3104 33.6858 29.4675 33.6858 30.7788C33.6858 32.1672 32.5287 33.2471 31.2174 33.2471ZM41.0909 33.2471C39.7024 33.2471 38.6225 32.1672 38.6225 30.7788C38.6225 29.4675 39.7024 28.3104 41.0909 28.3104C42.4022 28.3104 43.5592 29.4675 43.5592 30.7788C43.5592 32.1672 42.4022 33.2471 41.0909 33.2471ZM27.9777 38.1067C28.749 37.4125 29.9061 37.4896 30.6003 38.1839C31.9116 39.7266 33.9172 40.6522 36.077 40.6522C38.314 40.6522 40.2424 39.7266 41.6308 38.1839C42.325 37.4896 43.4821 37.4125 44.2535 38.1067C45.0248 38.7238 45.102 39.958 44.4077 40.6522C42.325 42.9663 39.3939 44.3548 36.077 44.3548C32.8373 44.3548 29.829 42.9663 27.8234 40.6522C27.1292 39.958 27.2063 38.7238 27.9777 38.1067Z" fill="white"/>
</svg>
