<svg width="408" height="74" viewBox="0 0 408 74" fill="none" xmlns="http://www.w3.org/2000/svg">
<path fill-rule="evenodd" clip-rule="evenodd" d="M67.1445 27.3188L74.5898 6.52354C74.6453 6.36829 74.574 6.19592 74.4248 6.12487L74.0078 5.9262L65.991 17.956L65.1595 11.1997C64.4929 5.78804 59.5514 1.9395 54.1242 2.60395L8.69743 8.16427C3.26887 8.82741 -0.591701 13.7535 0.0748249 19.1652C0.0748249 19.1665 0.0748249 19.1691 0.0748249 19.1704L5.65253 64.4504C6.31905 69.862 11.2606 73.7106 16.6878 73.0461L62.1093 67.4858C67.5378 66.8213 71.3984 61.8952 70.7319 56.4849L67.1445 27.3188V27.3188Z" fill="#F35321"/>
<path fill-rule="evenodd" clip-rule="evenodd" d="M19.9729 28.8819L33.9066 43.5577L70.2792 2.28817C73.431 -1.39722 77.1266 1.63951 75.0716 5.13412L40.5006 56.3178C37.6854 60.0268 31.1257 60.461 28.6906 56.4651L14.3926 33.8817C10.9372 28.724 16.1546 24.5018 19.9742 28.8819H19.9729Z" fill="white"/>
<path d="M116.025 28.8339C115.814 27.0561 114.961 25.676 113.464 24.6936C111.966 23.7111 110.13 23.2199 107.955 23.2199C106.364 23.2199 104.972 23.4772 103.779 23.9918C102.598 24.5064 101.674 25.214 101.008 26.1146C100.353 27.0152 100.025 28.0385 100.025 29.1847C100.025 30.1438 100.253 30.9683 100.709 31.6584C101.177 32.3367 101.774 32.904 102.499 33.3601C103.224 33.8046 103.984 34.173 104.779 34.4654C105.575 34.7461 106.306 34.9741 106.972 35.1496L110.621 36.132C111.557 36.3776 112.598 36.7168 113.744 37.1496C114.902 37.5823 116.007 38.1729 117.06 38.9215C118.124 39.6583 119.001 40.6057 119.692 41.7635C120.382 42.9214 120.727 44.3425 120.727 46.0267C120.727 47.9682 120.218 49.7225 119.2 51.2898C118.194 52.857 116.721 54.1026 114.779 55.0266C112.849 55.9505 110.504 56.4125 107.744 56.4125C105.171 56.4125 102.943 55.9973 101.06 55.1669C99.1888 54.3365 97.7151 53.1786 96.6391 51.6933C95.5748 50.2079 94.9725 48.4828 94.8321 46.5179H99.3233C99.4403 47.8746 99.8964 48.9974 100.692 49.8863C101.499 50.7635 102.516 51.4184 103.744 51.8512C104.984 52.2722 106.317 52.4827 107.744 52.4827C109.405 52.4827 110.896 52.2137 112.218 51.6757C113.54 51.126 114.586 50.3658 115.358 49.395C116.13 48.4126 116.516 47.2664 116.516 45.9565C116.516 44.7635 116.183 43.7928 115.516 43.0442C114.849 42.2957 113.972 41.6875 112.885 41.2197C111.797 40.7519 110.621 40.3425 109.358 39.9916L104.937 38.7285C102.13 37.9215 99.9081 36.7694 98.2707 35.2724C96.6333 33.7753 95.8146 31.8163 95.8146 29.3953C95.8146 27.3836 96.3584 25.6292 97.4461 24.1322C98.5455 22.6234 100.019 21.4538 101.867 20.6234C103.727 19.7813 105.803 19.3603 108.095 19.3603C110.411 19.3603 112.469 19.7755 114.271 20.6059C116.072 21.4246 117.499 22.5474 118.551 23.9743C119.615 25.4011 120.177 27.021 120.235 28.8339H116.025ZM127.319 55.7809V28.8339H131.319V33.0443H131.669C132.231 31.6058 133.137 30.4888 134.389 29.6935C135.64 28.8865 137.143 28.483 138.897 28.483C140.675 28.483 142.155 28.8865 143.336 29.6935C144.529 30.4888 145.459 31.6058 146.125 33.0443H146.406C147.096 31.6525 148.131 30.5473 149.511 29.7286C150.891 28.8982 152.546 28.483 154.476 28.483C156.886 28.483 158.856 29.2374 160.388 30.7461C161.921 32.2432 162.687 34.5765 162.687 37.746V55.7809H158.546V37.746C158.546 35.7578 158.003 34.3367 156.915 33.4829C155.827 32.6291 154.546 32.2022 153.073 32.2022C151.178 32.2022 149.71 32.7753 148.669 33.9215C147.628 35.056 147.108 36.4946 147.108 38.2373V55.7809H142.897V37.325C142.897 35.7929 142.4 34.5589 141.406 33.6233C140.412 32.6759 139.131 32.2022 137.564 32.2022C136.488 32.2022 135.482 32.4888 134.547 33.0619C133.623 33.635 132.874 34.4303 132.301 35.4478C131.74 36.4537 131.459 37.6174 131.459 38.939V55.7809H127.319ZM178.187 56.4125C176.479 56.4125 174.929 56.0909 173.537 55.4476C172.146 54.7927 171.04 53.8511 170.222 52.6231C169.403 51.3833 168.994 49.8863 168.994 48.1319C168.994 46.5881 169.298 45.3366 169.906 44.3776C170.514 43.4068 171.327 42.6466 172.344 42.0969C173.362 41.5472 174.485 41.1378 175.713 40.8688C176.953 40.5881 178.198 40.3659 179.45 40.2022C181.087 39.9916 182.415 39.8337 183.432 39.7285C184.461 39.6115 185.21 39.4185 185.678 39.1495C186.157 38.8805 186.397 38.4127 186.397 37.746V37.6057C186.397 35.8747 185.923 34.5297 184.976 33.5707C184.04 32.6116 182.619 32.1321 180.713 32.1321C178.736 32.1321 177.187 32.5648 176.064 33.4303C174.941 34.2958 174.151 35.2198 173.695 36.2022L169.766 34.7987C170.467 33.1613 171.403 31.8865 172.573 30.9742C173.754 30.0502 175.04 29.407 176.432 29.0444C177.836 28.6701 179.216 28.483 180.572 28.483C181.438 28.483 182.432 28.5882 183.555 28.7988C184.689 28.9976 185.783 29.4128 186.836 30.0444C187.9 30.6759 188.783 31.6292 189.485 32.904C190.186 34.1788 190.537 35.8864 190.537 38.0267V55.7809H186.397V52.1319H186.186C185.906 52.7166 185.438 53.3424 184.783 54.009C184.128 54.6757 183.257 55.2429 182.169 55.7108C181.081 56.1786 179.754 56.4125 178.187 56.4125ZM178.818 52.6933C180.456 52.6933 181.836 52.3716 182.958 51.7284C184.093 51.0851 184.947 50.2547 185.52 49.2372C186.105 48.2196 186.397 47.1495 186.397 46.0267V42.2372C186.222 42.4478 185.836 42.6407 185.239 42.8162C184.654 42.9799 183.976 43.1261 183.204 43.2548C182.444 43.3717 181.701 43.477 180.976 43.5705C180.263 43.6524 179.684 43.7226 179.239 43.7811C178.163 43.9214 177.157 44.1495 176.222 44.4653C175.298 44.7694 174.549 45.2313 173.976 45.8512C173.415 46.4594 173.134 47.2898 173.134 48.3424C173.134 49.781 173.666 50.8687 174.73 51.6056C175.806 52.3307 177.169 52.6933 178.818 52.6933ZM198.094 55.7809V28.8339H202.094V32.904H202.375C202.866 31.5707 203.755 30.4888 205.042 29.6584C206.328 28.828 207.778 28.4128 209.392 28.4128C209.696 28.4128 210.077 28.4187 210.533 28.4304C210.989 28.4421 211.334 28.4596 211.568 28.483V32.6935C211.427 32.6584 211.106 32.6057 210.603 32.5356C210.112 32.4537 209.591 32.4128 209.041 32.4128C207.732 32.4128 206.562 32.6876 205.533 33.2373C204.515 33.7753 203.708 34.5239 203.112 35.4829C202.527 36.4303 202.235 37.5121 202.235 38.7285V55.7809H198.094ZM229.883 28.8339V32.3426H215.919V28.8339H229.883ZM219.989 22.3778H224.129V48.0617C224.129 49.2313 224.299 50.1085 224.638 50.6933C224.989 51.2664 225.433 51.6523 225.971 51.8512C226.521 52.0383 227.1 52.1319 227.708 52.1319C228.164 52.1319 228.538 52.1085 228.831 52.0617C229.123 52.0032 229.357 51.9564 229.532 51.9213L230.375 55.6406C230.094 55.7459 229.702 55.8511 229.199 55.9564C228.696 56.0733 228.059 56.1318 227.287 56.1318C226.117 56.1318 224.971 55.8804 223.848 55.3774C222.737 54.8745 221.813 54.1084 221.076 53.0792C220.351 52.05 219.989 50.7518 219.989 49.1845V22.3778ZM256.322 28.8339C256.111 27.0561 255.257 25.676 253.76 24.6936C252.263 23.7111 250.427 23.2199 248.252 23.2199C246.661 23.2199 245.269 23.4772 244.076 23.9918C242.895 24.5064 241.971 25.214 241.304 26.1146C240.649 27.0152 240.322 28.0385 240.322 29.1847C240.322 30.1438 240.55 30.9683 241.006 31.6584C241.474 32.3367 242.07 32.904 242.795 33.3601C243.521 33.8046 244.281 34.173 245.076 34.4654C245.871 34.7461 246.602 34.9741 247.269 35.1496L250.918 36.132C251.854 36.3776 252.895 36.7168 254.041 37.1496C255.199 37.5823 256.304 38.1729 257.357 38.9215C258.421 39.6583 259.298 40.6057 259.988 41.7635C260.678 42.9214 261.023 44.3425 261.023 46.0267C261.023 47.9682 260.515 49.7225 259.497 51.2898C258.491 52.857 257.018 54.1026 255.076 55.0266C253.146 55.9505 250.801 56.4125 248.041 56.4125C245.468 56.4125 243.24 55.9973 241.357 55.1669C239.486 54.3365 238.012 53.1786 236.936 51.6933C235.872 50.2079 235.269 48.4828 235.129 46.5179H239.62C239.737 47.8746 240.193 48.9974 240.988 49.8863C241.795 50.7635 242.813 51.4184 244.041 51.8512C245.281 52.2722 246.614 52.4827 248.041 52.4827C249.702 52.4827 251.193 52.2137 252.515 51.6757C253.836 51.126 254.883 50.3658 255.655 49.395C256.427 48.4126 256.813 47.2664 256.813 45.9565C256.813 44.7635 256.48 43.7928 255.813 43.0442C255.146 42.2957 254.269 41.6875 253.181 41.2197C252.094 40.7519 250.918 40.3425 249.655 39.9916L245.234 38.7285C242.427 37.9215 240.205 36.7694 238.567 35.2724C236.93 33.7753 236.111 31.8163 236.111 29.3953C236.111 27.3836 236.655 25.6292 237.743 24.1322C238.842 22.6234 240.316 21.4538 242.164 20.6234C244.024 19.7813 246.1 19.3603 248.392 19.3603C250.708 19.3603 252.766 19.7755 254.567 20.6059C256.368 21.4246 257.795 22.5474 258.848 23.9743C259.912 25.4011 260.474 27.021 260.532 28.8339H256.322ZM284.598 44.7635V28.8339H288.738V55.7809H284.598V51.2196H284.317C283.685 52.588 282.703 53.7517 281.37 54.7108C280.036 55.6581 278.352 56.1318 276.317 56.1318C274.633 56.1318 273.136 55.7634 271.826 55.0266C270.516 54.278 269.487 53.1552 268.738 51.6582C267.99 50.1494 267.615 48.2489 267.615 45.9565V28.8339H271.756V45.6758C271.756 47.6407 272.305 49.2079 273.405 50.3775C274.516 51.5471 275.931 52.1319 277.65 52.1319C278.68 52.1319 279.726 51.8687 280.791 51.3424C281.867 50.8161 282.767 50.0091 283.492 48.9214C284.229 47.8337 284.598 46.4477 284.598 44.7635ZM296.321 55.7809V28.8339H300.321V32.904H300.602C301.093 31.5707 301.982 30.4888 303.269 29.6584C304.555 28.828 306.005 28.4128 307.619 28.4128C307.923 28.4128 308.304 28.4187 308.76 28.4304C309.216 28.4421 309.561 28.4596 309.795 28.483V32.6935C309.654 32.6584 309.333 32.6057 308.83 32.5356C308.339 32.4537 307.818 32.4128 307.268 32.4128C305.959 32.4128 304.789 32.6876 303.76 33.2373C302.742 33.7753 301.935 34.5239 301.339 35.4829C300.754 36.4303 300.462 37.5121 300.462 38.7285V55.7809H296.321ZM337.558 28.8339L327.593 55.7809H323.382L313.418 28.8339H317.909L325.347 50.3073H325.628L333.066 28.8339H337.558ZM353.356 56.3423C350.759 56.3423 348.52 55.7692 346.637 54.6231C344.765 53.4652 343.321 51.8512 342.303 49.781C341.297 47.6992 340.794 45.2781 340.794 42.5179C340.794 39.7577 341.297 37.325 342.303 35.2198C343.321 33.1028 344.736 31.4537 346.549 30.2724C348.373 29.0795 350.502 28.483 352.935 28.483C354.338 28.483 355.724 28.7169 357.093 29.1847C358.461 29.6526 359.707 30.4128 360.829 31.4654C361.952 32.5063 362.847 33.8864 363.514 35.6057C364.18 37.325 364.514 39.4419 364.514 41.9565V43.7109H343.742V40.132H360.303C360.303 38.6115 359.999 37.2548 359.391 36.0619C358.794 34.8689 357.94 33.9274 356.829 33.2373C355.73 32.5473 354.432 32.2022 352.935 32.2022C351.286 32.2022 349.859 32.6116 348.654 33.4303C347.461 34.2373 346.543 35.2899 345.9 36.5882C345.256 37.8864 344.935 39.2782 344.935 40.7636V43.1495C344.935 45.1846 345.286 46.9097 345.987 48.3249C346.701 49.7284 347.689 50.7985 348.952 51.5354C350.215 52.2605 351.683 52.6231 353.356 52.6231C354.443 52.6231 355.426 52.471 356.303 52.1669C357.192 51.8512 357.958 51.3833 358.601 50.7635C359.245 50.1319 359.742 49.3483 360.093 48.4126L364.092 49.5354C363.671 50.8921 362.964 52.0851 361.97 53.1143C360.976 54.1318 359.747 54.9272 358.286 55.5002C356.824 56.0616 355.18 56.3423 353.356 56.3423ZM372.658 65.8861C371.956 65.8861 371.331 65.8276 370.781 65.7107C370.231 65.6054 369.851 65.5001 369.641 65.3949L370.693 61.7458C371.699 62.0031 372.588 62.0967 373.36 62.0265C374.132 61.9563 374.816 61.6113 375.413 60.9914C376.021 60.3832 376.576 59.3949 377.079 58.0265L377.851 55.9213L367.886 28.8339H372.377L379.816 50.3073H380.097L387.535 28.8339H392.026L380.588 59.7107C380.073 61.1025 379.436 62.2546 378.676 63.1668C377.915 64.0908 377.032 64.775 376.027 65.2194C375.032 65.6639 373.91 65.8861 372.658 65.8861Z" fill="#263146"/>
</svg>
