<svg width="28" height="25" viewBox="0 0 28 25" fill="none" xmlns="http://www.w3.org/2000/svg">
<path d="M25.4707 0L27.6855 2.70703C22.0801 7.27344 19.2773 11.0879 19.2773 14.1504C19.2773 14.5059 19.3047 14.9434 19.3594 15.4629C19.8516 15.2441 20.3164 15.0938 20.7539 15.0117C21.1914 14.9023 21.6016 14.8477 21.9844 14.8477C23.2695 14.8477 24.3086 15.2715 25.1016 16.1191C25.8945 16.9668 26.291 18.0469 26.291 19.3594C26.291 20.6445 25.8125 21.7656 24.8555 22.7227C23.8984 23.6797 22.75 24.1582 21.4102 24.1582C19.5781 24.1582 17.9922 23.4199 16.6523 21.9434C15.3125 20.4395 14.6426 18.5117 14.6426 16.1602C14.6426 14.6289 14.957 13.0293 15.5859 11.3613C16.2148 9.66602 17.1309 8.10742 18.334 6.68555C19.5371 5.23633 21.916 3.00781 25.4707 0ZM10.8281 0L13.043 2.70703C7.4375 7.27344 4.63477 11.0879 4.63477 14.1504C4.63477 14.5059 4.66211 14.9434 4.7168 15.4629C5.20898 15.2441 5.67383 15.0938 6.11133 15.0117C6.54883 14.9023 6.95898 14.8477 7.3418 14.8477C8.62695 14.8477 9.66602 15.2715 10.459 16.1191C11.2793 16.9668 11.6895 18.0469 11.6895 19.3594C11.6895 20.6445 11.1973 21.7656 10.2129 22.7227C9.25586 23.6797 8.10742 24.1582 6.76758 24.1582C4.93555 24.1582 3.34961 23.4199 2.00977 21.9434C0.669922 20.4395 0 18.5117 0 16.1602C0 14.6289 0.314453 13.0293 0.943359 11.3613C1.57227 9.66602 2.48828 8.10742 3.69141 6.68555C4.89453 5.23633 7.27344 3.00781 10.8281 0Z" fill="#4C5567"/>
</svg>
