<svg width="32" height="32" viewBox="0 0 32 32" fill="none" xmlns="http://www.w3.org/2000/svg">
<path d="M23.9452 11.9875C23.9585 12.1629 23.9585 12.3373 23.9585 12.5117C23.9585 17.8494 19.8337 24 12.2955 24C9.97313 24 7.81559 23.3374 6 22.1867C6.32974 22.2238 6.64726 22.2368 6.99023 22.2368C8.90657 22.2368 10.6703 21.5993 12.0798 20.5117C10.2774 20.4746 8.76715 19.3119 8.24608 17.7121C8.49949 17.7492 8.75392 17.7742 9.02056 17.7742C9.38795 17.7742 9.75738 17.7241 10.1003 17.6369C8.22064 17.262 6.81315 15.6371 6.81315 13.6745V13.6244C7.35966 13.9241 7.99369 14.1115 8.66538 14.1366C7.56116 13.4129 6.83757 12.1749 6.83757 10.7746C6.83757 10.0248 7.0401 9.33718 7.39528 8.73775C9.41339 11.1866 12.4472 12.7874 15.8484 12.9628C15.7853 12.6621 15.7466 12.3503 15.7466 12.0376C15.7466 9.8123 17.5744 8 19.8459 8C21.0265 8 22.092 8.48716 22.841 9.27503C23.7671 9.09961 24.6546 8.76181 25.4423 8.29971C25.138 9.23694 24.4897 10.0248 23.6399 10.525C24.4653 10.4368 25.2652 10.2123 26 9.89951C25.4423 10.6994 24.7452 11.4121 23.9452 11.9875Z" fill="white"/>
</svg>
