<svg width="306" height="74" viewBox="0 0 306 74" fill="none" xmlns="http://www.w3.org/2000/svg">
<path fill-rule="evenodd" clip-rule="evenodd" d="M68.6028 25.7428L67.7082 18.086L66.6864 9.34752C66.5299 8.00879 66.1171 6.7147 65.4716 5.53916C64.826 4.36362 63.9603 3.32966 62.924 2.49633C61.8877 1.66299 60.7009 1.04662 59.4316 0.682411C58.1623 0.318199 56.8353 0.213286 55.5264 0.373662L9.59412 5.99124C6.95124 6.31487 4.54225 7.69878 2.89693 9.83864C1.25161 11.9785 0.504684 14.6991 0.820417 17.4021L6.31324 64.3775C6.4695 65.7162 6.88209 67.0103 7.52745 68.1859C8.1728 69.3616 9.03828 70.3956 10.0745 71.2291C11.1106 72.0626 12.2972 72.6792 13.5664 73.0436C14.8356 73.4081 16.1626 73.5132 17.4715 73.3531L63.4038 67.7356C64.7127 67.5754 65.978 67.1532 67.1274 66.4929C68.2768 65.8327 69.2877 64.9473 70.1025 63.8875C70.9173 62.8276 71.52 61.614 71.8762 60.3159C72.2324 59.0178 72.335 57.6607 72.1783 56.3221L68.6028 25.7428Z" fill="#00A2B8"/>
<path d="M20.0464 24.3669V35.5286C20.0464 36.4164 20.6812 37.0506 21.5698 37.0506H24.6167C25.4419 37.0506 26.1401 37.7482 26.1401 38.5727V39.841L29.8218 37.3043C30.0757 37.1775 30.3931 37.0506 30.7104 37.0506H38.8354C39.6606 37.0506 40.3589 36.4164 40.3589 35.5286V24.3669C40.3589 23.5425 39.6606 22.8449 38.8354 22.8449H21.5698C20.6812 22.8449 20.0464 23.5425 20.0464 24.3669ZM21.5698 19.8008H38.8354C41.311 19.8008 43.4058 21.8936 43.4058 24.3669V35.5286C43.4058 38.0653 41.311 40.0947 38.8354 40.0947H31.1548L25.4419 43.8998C24.9976 44.2169 24.3628 44.2803 23.855 44.0267C23.3472 43.7096 23.0933 43.2022 23.0933 42.6315V40.0947H21.5698C19.0308 40.0947 16.9995 38.0653 16.9995 35.5286V24.3669C16.9995 21.8936 19.0308 19.8008 21.5698 19.8008ZM33.2495 43.6462V42.1241H36.2964V43.6462C36.2964 44.534 36.9312 45.1682 37.8198 45.1682H43.9136C44.1675 45.1682 44.4849 45.295 44.7388 45.4219L48.4839 47.9586V46.6903C48.4839 45.8658 49.1187 45.1682 50.0073 45.1682H53.0542C53.8794 45.1682 54.5776 44.534 54.5776 43.6462V32.4845C54.5776 31.6601 53.8794 30.9624 53.0542 30.9624H45.437V27.9184H53.0542C55.5298 27.9184 57.6245 30.0112 57.6245 32.4845V43.6462C57.6245 46.1829 55.5298 48.2123 53.0542 48.2123H51.5308V50.749C51.5308 51.3198 51.2134 51.8272 50.7056 52.1442C50.1978 52.3979 49.6265 52.3345 49.1187 52.0174L43.4058 48.2123H37.8198C35.2808 48.2123 33.2495 46.1829 33.2495 43.6462Z" fill="white"/>
<path d="M116.774 28.7282C116.564 26.9504 115.71 25.5703 114.213 24.5879C112.716 23.6055 110.879 23.1142 108.704 23.1142C107.113 23.1142 105.722 23.3715 104.529 23.8862C103.347 24.4008 102.423 25.1084 101.757 26.0089C101.102 26.9095 100.774 27.9329 100.774 29.0791C100.774 30.0381 101.002 30.8627 101.459 31.5527C101.926 32.2311 102.523 32.7983 103.248 33.2545C103.973 33.6989 104.733 34.0673 105.529 34.3597C106.324 34.6404 107.055 34.8685 107.722 35.0439L111.371 36.0264C112.306 36.272 113.347 36.6112 114.493 37.0439C115.651 37.4767 116.757 38.0673 117.809 38.8158C118.874 39.5527 119.751 40.5 120.441 41.6579C121.131 42.8158 121.476 44.2368 121.476 45.921C121.476 47.8625 120.967 49.6169 119.95 51.1841C118.944 52.7513 117.47 53.9969 115.529 54.9209C113.599 55.8449 111.254 56.3069 108.494 56.3069C105.92 56.3069 103.692 55.8917 101.809 55.0613C99.9381 54.2309 98.4644 53.073 97.3884 51.5876C96.3241 50.1023 95.7218 48.3771 95.5814 46.4122H100.073C100.19 47.7689 100.646 48.8917 101.441 49.7806C102.248 50.6578 103.266 51.3128 104.494 51.7455C105.733 52.1666 107.067 52.3771 108.494 52.3771C110.154 52.3771 111.646 52.1081 112.967 51.5701C114.289 51.0204 115.336 50.2601 116.108 49.2894C116.879 48.3069 117.265 47.1608 117.265 45.8508C117.265 44.6579 116.932 43.6871 116.265 42.9386C115.599 42.1901 114.722 41.5819 113.634 41.114C112.546 40.6462 111.371 40.2369 110.108 39.886L105.687 38.6228C102.88 37.8158 100.657 36.6638 99.02 35.1667C97.3826 33.6697 96.5638 31.7106 96.5638 29.2896C96.5638 27.2779 97.1077 25.5236 98.1954 24.0265C99.2948 22.5177 100.768 21.3482 102.616 20.5178C104.476 19.6757 106.552 19.2546 108.844 19.2546C111.16 19.2546 113.219 19.6698 115.02 20.5002C116.821 21.3189 118.248 22.4417 119.3 23.8686C120.365 25.2955 120.926 26.9154 120.985 28.7282H116.774ZM128.068 55.6753V28.7282H132.068V32.9387H132.419C132.98 31.5001 133.887 30.3832 135.138 29.5878C136.389 28.7808 137.892 28.3773 139.647 28.3773C141.424 28.3773 142.904 28.7808 144.085 29.5878C145.278 30.3832 146.208 31.5001 146.875 32.9387H147.155C147.845 31.5469 148.881 30.4416 150.261 29.6229C151.641 28.7925 153.296 28.3773 155.226 28.3773C157.635 28.3773 159.606 29.1317 161.138 30.6405C162.67 32.1375 163.436 34.4708 163.436 37.6404V55.6753H159.296V37.6404C159.296 35.6521 158.752 34.2311 157.664 33.3773C156.576 32.5235 155.296 32.0966 153.822 32.0966C151.927 32.0966 150.459 32.6697 149.419 33.8159C148.378 34.9504 147.857 36.3889 147.857 38.1316V55.6753H143.647V37.2193C143.647 35.6872 143.15 34.4533 142.155 33.5176C141.161 32.5703 139.881 32.0966 138.313 32.0966C137.237 32.0966 136.232 32.3831 135.296 32.9562C134.372 33.5293 133.623 34.3246 133.05 35.3422C132.489 36.348 132.208 37.5117 132.208 38.8334V55.6753H128.068ZM178.936 56.3069C177.228 56.3069 175.679 55.9852 174.287 55.342C172.895 54.687 171.79 53.7455 170.971 52.5174C170.152 51.2777 169.743 49.7806 169.743 48.0263C169.743 46.4824 170.047 45.231 170.655 44.2719C171.263 43.3012 172.076 42.5409 173.094 41.9912C174.111 41.4415 175.234 41.0322 176.462 40.7632C177.702 40.4825 178.947 40.2603 180.199 40.0965C181.836 39.886 183.164 39.7281 184.181 39.6228C185.211 39.5059 185.959 39.3129 186.427 39.0439C186.906 38.7749 187.146 38.3071 187.146 37.6404V37.5C187.146 35.7691 186.673 34.4241 185.725 33.465C184.79 32.5059 183.368 32.0264 181.462 32.0264C179.485 32.0264 177.936 32.4592 176.813 33.3247C175.69 34.1901 174.901 35.1141 174.445 36.0966L170.515 34.6931C171.217 33.0556 172.152 31.7808 173.322 30.8685C174.503 29.9446 175.79 29.3013 177.181 28.9387C178.585 28.5645 179.965 28.3773 181.322 28.3773C182.187 28.3773 183.181 28.4826 184.304 28.6931C185.439 28.8919 186.532 29.3071 187.585 29.9387C188.649 30.5703 189.532 31.5235 190.234 32.7983C190.936 34.0732 191.287 35.7808 191.287 37.9211V55.6753H187.146V52.0262H186.936C186.655 52.611 186.187 53.2367 185.532 53.9034C184.877 54.57 184.006 55.1373 182.918 55.6051C181.83 56.0729 180.503 56.3069 178.936 56.3069ZM179.567 52.5876C181.205 52.5876 182.585 52.266 183.708 51.6227C184.842 50.9794 185.696 50.149 186.269 49.1315C186.854 48.114 187.146 47.0438 187.146 45.921V42.1316C186.971 42.3421 186.585 42.5351 185.988 42.7105C185.404 42.8743 184.725 43.0205 183.953 43.1491C183.193 43.2661 182.45 43.3713 181.725 43.4649C181.012 43.5468 180.433 43.6169 179.988 43.6754C178.912 43.8158 177.907 44.0438 176.971 44.3596C176.047 44.6637 175.298 45.1257 174.725 45.7456C174.164 46.3538 173.883 47.1842 173.883 48.2368C173.883 49.6754 174.415 50.7631 175.48 51.4999C176.556 52.225 177.918 52.5876 179.567 52.5876ZM198.843 55.6753V28.7282H202.843V32.7983H203.124C203.615 31.465 204.504 30.3832 205.791 29.5528C207.077 28.7224 208.528 28.3072 210.142 28.3072C210.446 28.3072 210.826 28.313 211.282 28.3247C211.738 28.3364 212.083 28.3539 212.317 28.3773V32.5878C212.177 32.5527 211.855 32.5001 211.352 32.4299C210.861 32.3481 210.34 32.3071 209.791 32.3071C208.481 32.3071 207.311 32.582 206.282 33.1317C205.264 33.6697 204.457 34.4182 203.861 35.3773C203.276 36.3246 202.984 37.4065 202.984 38.6228V55.6753H198.843ZM230.633 28.7282V32.2369H216.668V28.7282H230.633ZM220.738 22.2721H224.878V47.9561C224.878 49.1257 225.048 50.0028 225.387 50.5876C225.738 51.1607 226.182 51.5467 226.72 51.7455C227.27 51.9326 227.849 52.0262 228.457 52.0262C228.913 52.0262 229.288 52.0028 229.58 51.956C229.872 51.8976 230.106 51.8508 230.282 51.8157L231.124 55.5349C230.843 55.6402 230.451 55.7455 229.948 55.8507C229.445 55.9677 228.808 56.0262 228.036 56.0262C226.867 56.0262 225.72 55.7747 224.598 55.2718C223.486 54.7689 222.563 54.0028 221.826 52.9736C221.101 51.9443 220.738 50.6461 220.738 49.0789V22.2721ZM266.334 30.9738H261.983C261.726 29.7223 261.276 28.6229 260.632 27.6756C260.001 26.7282 259.229 25.9329 258.317 25.2896C257.416 24.6347 256.416 24.1435 255.317 23.816C254.217 23.4885 253.071 23.3248 251.878 23.3248C249.703 23.3248 247.732 23.8745 245.966 24.9739C244.211 26.0733 242.814 27.6931 241.773 29.8335C240.744 31.9738 240.229 34.5995 240.229 37.7106C240.229 40.8216 240.744 43.4474 241.773 45.5877C242.814 47.728 244.211 49.3479 245.966 50.4473C247.732 51.5467 249.703 52.0964 251.878 52.0964C253.071 52.0964 254.217 51.9326 255.317 51.6052C256.416 51.2777 257.416 50.7923 258.317 50.149C259.229 49.4941 260.001 48.6929 260.632 47.7456C261.276 46.7865 261.726 45.6871 261.983 44.4473H266.334C266.007 46.2836 265.41 47.9268 264.545 49.3771C263.679 50.8274 262.603 52.0613 261.317 53.0788C260.03 54.0847 258.586 54.8507 256.983 55.3771C255.393 55.9034 253.691 56.1665 251.878 56.1665C248.814 56.1665 246.089 55.418 243.703 53.9209C241.317 52.4239 239.44 50.2952 238.071 47.535C236.703 44.7748 236.019 41.5 236.019 37.7106C236.019 33.9211 236.703 30.6463 238.071 27.8861C239.44 25.1259 241.317 22.9973 243.703 21.5002C246.089 20.0032 248.814 19.2546 251.878 19.2546C253.691 19.2546 255.393 19.5178 256.983 20.0441C258.586 20.5704 260.03 21.3423 261.317 22.3599C262.603 23.3657 263.679 24.5937 264.545 26.044C265.41 27.4826 266.007 29.1259 266.334 30.9738ZM273.365 55.6753V19.7458H295.049V23.6055H277.715V35.7457H293.926V39.6053H277.715V51.8157H295.329V55.6753H273.365Z" fill="#263146"/>
</svg>
