<svg width="32" height="32" viewBox="0 0 32 32" fill="none" xmlns="http://www.w3.org/2000/svg">
<path d="M11.9192 16.5866H13.8923V24.7093C13.8923 24.8697 14.0222 24.9997 14.1826 24.9997H17.528C17.6883 24.9997 17.8183 24.8697 17.8183 24.7093V16.6249H20.0865C20.234 16.6249 20.358 16.5142 20.3749 16.3677L20.7194 13.3773C20.7288 13.2951 20.7028 13.2127 20.6477 13.1509C20.5926 13.0892 20.5138 13.0538 20.431 13.0538H17.8184V11.1793C17.8184 10.6142 18.1227 10.3277 18.7228 10.3277C18.8083 10.3277 20.431 10.3277 20.431 10.3277C20.5914 10.3277 20.7213 10.1977 20.7213 10.0374V7.29247C20.7213 7.13209 20.5914 7.00215 20.431 7.00215H18.0768C18.0602 7.00134 18.0234 7 17.969 7C17.5605 7 16.1407 7.08019 15.0192 8.11197C13.7765 9.25536 13.9492 10.6244 13.9905 10.8617V13.0538H11.9192C11.7589 13.0538 11.6289 13.1837 11.6289 13.3441V16.2962C11.6289 16.4566 11.7589 16.5866 11.9192 16.5866Z" fill="white"/>
</svg>
