<svg width="306" height="74" viewBox="0 0 306 74" fill="none" xmlns="http://www.w3.org/2000/svg">
<path fill-rule="evenodd" clip-rule="evenodd" d="M68.6028 25.9904L67.7082 18.3902L66.6864 9.71639C66.5299 8.38757 66.1171 7.10305 65.4716 5.93621C64.826 4.76936 63.9603 3.74304 62.924 2.91588C61.8877 2.08871 60.7009 1.4769 59.4316 1.11538C58.1623 0.753862 56.8353 0.649724 55.5264 0.808914L9.59412 6.38494C6.95124 6.70617 4.54225 8.07985 2.89693 10.2039C1.25161 12.3279 0.504684 15.0284 0.820417 17.7113L6.31324 64.3393C6.4695 65.6681 6.88209 66.9527 7.52745 68.1196C8.1728 69.2865 9.03828 70.313 10.0745 71.1403C11.1106 71.9676 12.2972 72.5796 13.5664 72.9414C14.8356 73.3031 16.1626 73.4075 17.4715 73.2486L63.4038 67.6725C64.7127 67.5136 65.978 67.0945 67.1274 66.4391C68.2768 65.7837 69.2877 64.9049 70.1025 63.8529C70.9173 62.8009 71.52 61.5963 71.8762 60.3078C72.2324 59.0193 72.335 57.6722 72.1783 56.3435L68.6028 25.9904Z" fill="#C83472"/>
<path d="M24.0138 31.221C22.1123 31.221 20.4076 30.2375 19.4241 28.5983C18.5062 27.0247 18.5062 24.9922 19.4241 23.353C20.4076 21.7795 22.1123 20.7304 24.0138 20.7304C25.8496 20.7304 27.5543 21.7795 28.5378 23.353C29.4557 24.9922 29.4557 27.0247 28.5378 28.5983C27.5543 30.2375 25.8496 31.221 24.0138 31.221ZM48.142 31.221C46.2406 31.221 44.5359 30.2375 43.5524 28.5983C42.6345 27.0247 42.6345 24.9922 43.5524 23.353C44.5359 21.7795 46.2406 20.7304 48.142 20.7304C49.9779 20.7304 51.6826 21.7795 52.6661 23.353C53.584 24.9922 53.584 27.0247 52.6661 28.5983C51.6826 30.2375 49.9779 31.221 48.142 31.221ZM14.5723 40.3346C14.5723 36.4662 17.6539 33.3191 21.5223 33.3191H24.3416C25.3906 33.3191 26.3741 33.5813 27.2921 33.9747C27.1609 34.4337 27.1609 34.9582 27.1609 35.4172C27.1609 37.9742 28.21 40.2035 29.9803 41.7115H29.9147H15.9491C15.1624 41.7115 14.5723 41.1214 14.5723 40.3346ZM41.1265 41.7115H41.0609C42.8312 40.2035 43.9458 37.9742 43.9458 35.4172C43.9458 34.9582 43.8802 34.4337 43.8147 33.9747C44.667 33.5813 45.6505 33.3191 46.6996 33.3191H49.5189C53.3873 33.3191 56.5344 36.4662 56.5344 40.3346C56.5344 41.1214 55.8788 41.7115 55.092 41.7115H41.1265ZM35.5534 32.27C34.3732 32.27 33.3897 32.9257 32.7996 33.8436C32.2095 34.8271 32.2095 36.0728 32.7996 36.9908C33.3897 37.9742 34.3732 38.5643 35.5534 38.5643C36.668 38.5643 37.6515 37.9742 38.2416 36.9908C38.8317 36.0728 38.8317 34.8271 38.2416 33.8436C37.6515 32.9257 36.668 32.27 35.5534 32.27ZM35.5534 41.7115C33.2586 41.7115 31.226 40.5313 30.0458 38.5643C28.9312 36.6629 28.9312 34.237 30.0458 32.27C31.226 30.3686 33.2586 29.1228 35.5534 29.1228C37.7826 29.1228 39.8151 30.3686 40.9953 32.27C42.1099 34.237 42.1099 36.6629 40.9953 38.5643C39.8151 40.5313 37.7826 41.7115 35.5534 41.7115ZM31.685 46.9568C29.0623 46.9568 26.8987 48.7926 26.243 51.153H44.7981C44.1425 48.7926 41.9788 46.9568 39.3562 46.9568H31.685ZM31.685 43.8096H39.3562C44.2081 43.8096 48.142 47.7436 48.142 52.5954C48.142 53.5789 47.3552 54.3002 46.3717 54.3002H24.6694C23.6859 54.3002 22.9647 53.5134 22.9647 52.5954C22.9647 47.7436 26.8331 43.8096 31.685 43.8096Z" fill="white"/>
<path d="M116.774 27.5705C116.564 25.7927 115.71 24.4126 114.213 23.4302C112.716 22.4477 110.879 21.9565 108.704 21.9565C107.113 21.9565 105.722 22.2138 104.529 22.7284C103.347 23.2431 102.423 23.9506 101.757 24.8512C101.102 25.7518 100.774 26.7752 100.774 27.9214C100.774 28.8804 101.002 29.705 101.459 30.395C101.926 31.0734 102.523 31.6406 103.248 32.0968C103.973 32.5412 104.733 32.9096 105.529 33.202C106.324 33.4827 107.055 33.7108 107.722 33.8862L111.371 34.8687C112.306 35.1143 113.347 35.4535 114.493 35.8862C115.651 36.3189 116.757 36.9096 117.809 37.6581C118.874 38.3949 119.751 39.3423 120.441 40.5002C121.131 41.6581 121.476 43.0791 121.476 44.7633C121.476 46.7048 120.967 48.4592 119.95 50.0264C118.944 51.5936 117.47 52.8392 115.529 53.7632C113.599 54.6872 111.254 55.1492 108.494 55.1492C105.92 55.1492 103.692 54.734 101.809 53.9035C99.9381 53.0731 98.4644 51.9153 97.3884 50.4299C96.3241 48.9445 95.7218 47.2194 95.5814 45.2545H100.073C100.19 46.6112 100.646 47.734 101.441 48.6229C102.248 49.5001 103.266 50.1551 104.494 50.5878C105.733 51.0088 107.067 51.2194 108.494 51.2194C110.154 51.2194 111.646 50.9504 112.967 50.4124C114.289 49.8627 115.336 49.1024 116.108 48.1317C116.879 47.1492 117.265 46.003 117.265 44.6931C117.265 43.5002 116.932 42.5294 116.265 41.7809C115.599 41.0323 114.722 40.4242 113.634 39.9563C112.546 39.4885 111.371 39.0791 110.108 38.7283L105.687 37.4651C102.88 36.6581 100.657 35.5061 99.02 34.009C97.3826 32.512 96.5638 30.5529 96.5638 28.1319C96.5638 26.1202 97.1077 24.3658 98.1954 22.8688C99.2948 21.36 100.768 20.1905 102.616 19.3601C104.476 18.518 106.552 18.0969 108.844 18.0969C111.16 18.0969 113.219 18.5121 115.02 19.3425C116.821 20.1612 118.248 21.284 119.3 22.7109C120.365 24.1378 120.926 25.7576 120.985 27.5705H116.774ZM128.068 54.5176V27.5705H132.068V31.781H132.419C132.98 30.3424 133.887 29.2254 135.138 28.4301C136.389 27.6231 137.892 27.2196 139.647 27.2196C141.424 27.2196 142.904 27.6231 144.085 28.4301C145.278 29.2254 146.208 30.3424 146.875 31.781H147.155C147.845 30.3892 148.881 29.2839 150.261 28.4652C151.641 27.6348 153.296 27.2196 155.226 27.2196C157.635 27.2196 159.606 27.974 161.138 29.4828C162.67 30.9798 163.436 33.3131 163.436 36.4827V54.5176H159.296V36.4827C159.296 34.4944 158.752 33.0734 157.664 32.2196C156.576 31.3658 155.296 30.9389 153.822 30.9389C151.927 30.9389 150.459 31.512 149.419 32.6582C148.378 33.7926 147.857 35.2312 147.857 36.9739V54.5176H143.647V36.0616C143.647 34.5295 143.15 33.2956 142.155 32.3599C141.161 31.4126 139.881 30.9389 138.313 30.9389C137.237 30.9389 136.232 31.2254 135.296 31.7985C134.372 32.3716 133.623 33.1669 133.05 34.1845C132.489 35.1903 132.208 36.354 132.208 37.6757V54.5176H128.068ZM178.936 55.1492C177.228 55.1492 175.679 54.8275 174.287 54.1842C172.895 53.5293 171.79 52.5878 170.971 51.3597C170.152 50.12 169.743 48.6229 169.743 46.8685C169.743 45.3247 170.047 44.0732 170.655 43.1142C171.263 42.1434 172.076 41.3832 173.094 40.8335C174.111 40.2838 175.234 39.8745 176.462 39.6055C177.702 39.3248 178.947 39.1025 180.199 38.9388C181.836 38.7283 183.164 38.5704 184.181 38.4651C185.211 38.3482 185.959 38.1552 186.427 37.8862C186.906 37.6172 187.146 37.1493 187.146 36.4827V36.3423C187.146 34.6114 186.673 33.2663 185.725 32.3073C184.79 31.3482 183.368 30.8687 181.462 30.8687C179.485 30.8687 177.936 31.3014 176.813 32.1669C175.69 33.0324 174.901 33.9564 174.445 34.9388L170.515 33.5353C171.217 31.8979 172.152 30.6231 173.322 29.7108C174.503 28.7869 175.79 28.1436 177.181 27.781C178.585 27.4068 179.965 27.2196 181.322 27.2196C182.187 27.2196 183.181 27.3249 184.304 27.5354C185.439 27.7342 186.532 28.1494 187.585 28.781C188.649 29.4126 189.532 30.3658 190.234 31.6406C190.936 32.9155 191.287 34.6231 191.287 36.7634V54.5176H187.146V50.8685H186.936C186.655 51.4533 186.187 52.079 185.532 52.7457C184.877 53.4123 184.006 53.9796 182.918 54.4474C181.83 54.9152 180.503 55.1492 178.936 55.1492ZM179.567 51.4299C181.205 51.4299 182.585 51.1083 183.708 50.465C184.842 49.8217 185.696 48.9913 186.269 47.9738C186.854 46.9563 187.146 45.8861 187.146 44.7633V40.9739C186.971 41.1844 186.585 41.3774 185.988 41.5528C185.404 41.7165 184.725 41.8627 183.953 41.9914C183.193 42.1084 182.45 42.2136 181.725 42.3072C181.012 42.3891 180.433 42.4592 179.988 42.5177C178.912 42.6581 177.907 42.8861 176.971 43.2019C176.047 43.506 175.298 43.968 174.725 44.5879C174.164 45.196 173.883 46.0264 173.883 47.0791C173.883 48.5176 174.415 49.6053 175.48 50.3422C176.556 51.0673 177.918 51.4299 179.567 51.4299ZM198.843 54.5176V27.5705H202.843V31.6406H203.124C203.615 30.3073 204.504 29.2254 205.791 28.395C207.077 27.5646 208.528 27.1494 210.142 27.1494C210.446 27.1494 210.826 27.1553 211.282 27.167C211.738 27.1787 212.083 27.1962 212.317 27.2196V31.4301C212.177 31.395 211.855 31.3424 211.352 31.2722C210.861 31.1903 210.34 31.1494 209.791 31.1494C208.481 31.1494 207.311 31.4243 206.282 31.974C205.264 32.512 204.457 33.2605 203.861 34.2195C203.276 35.1669 202.984 36.2488 202.984 37.4651V54.5176H198.843ZM230.633 27.5705V31.0792H216.668V27.5705H230.633ZM220.738 21.1144H224.878V46.7984C224.878 47.9679 225.048 48.8451 225.387 49.4299C225.738 50.003 226.182 50.389 226.72 50.5878C227.27 50.7749 227.849 50.8685 228.457 50.8685C228.913 50.8685 229.288 50.8451 229.58 50.7983C229.872 50.7398 230.106 50.6931 230.282 50.658L231.124 54.3772C230.843 54.4825 230.451 54.5878 229.948 54.693C229.445 54.81 228.808 54.8685 228.036 54.8685C226.867 54.8685 225.72 54.617 224.598 54.1141C223.486 53.6112 222.563 52.8451 221.826 51.8159C221.101 50.7866 220.738 49.4884 220.738 47.9212V21.1144ZM238.001 54.5176V18.5881H259.685V22.4477H242.352V34.588H258.562V38.4476H242.352V50.658H259.966V54.5176H238.001ZM269.632 18.5881L278.895 33.5353H279.176L288.439 18.5881H293.562L282.264 36.5529L293.562 54.5176H288.439L279.176 39.8511H278.895L269.632 54.5176H264.509L276.088 36.5529L264.509 18.5881H269.632Z" fill="#263146"/>
</svg>
