<svg width="188" height="120" viewBox="0 0 188 120" fill="none" xmlns="http://www.w3.org/2000/svg">
<g clip-path="url(#clip0_24_69)">
<path d="M49.5766 73.2414V71.2039H46.4469V83.3255H49.5766V76.0572C49.5766 74.741 50.4224 74.0945 51.7409 74.0945H53.4538V71.204H51.9905C50.8451 71.2039 49.8497 71.8005 49.5766 73.2414ZM56.3851 66.4094C55.3145 66.4094 54.4937 67.2536 54.4937 68.3222C54.4913 68.5717 54.5384 68.8192 54.6324 69.0503C54.7263 69.2815 54.8653 69.4918 55.0411 69.669C55.217 69.8463 55.4263 69.987 55.6569 70.083C55.8876 70.1791 56.1351 70.2285 56.385 70.2285C56.6349 70.2285 56.8823 70.1791 57.113 70.083C57.3437 69.987 57.553 69.8463 57.7288 69.669C57.9047 69.4918 58.0436 69.2815 58.1376 69.0503C58.2315 68.8192 58.2786 68.5717 58.2762 68.3222C58.2765 67.2536 57.4557 66.4094 56.3851 66.4094ZM54.8238 83.3256H57.9463V71.2039H54.824L54.8238 83.3256ZM72.82 77.2647C72.82 78.0875 72.6577 78.9023 72.3422 79.6625C72.0268 80.4227 71.5644 81.1135 70.9815 81.6953C70.3987 82.2771 69.7067 82.7387 68.9451 83.0535C68.1835 83.3684 67.3673 83.5305 66.5429 83.5304C65.2125 83.5365 63.9173 83.1039 62.8584 82.2997V86.8841H59.736V71.2039H62.8584V72.2298C63.9173 71.4256 65.2125 70.993 66.5429 70.9991C67.3673 70.9991 68.1835 71.1611 68.9451 71.476C69.7067 71.7909 70.3986 72.2524 70.9815 72.8342C71.5644 73.416 72.0268 74.1068 72.3422 74.8669C72.6576 75.6271 72.82 76.4419 72.82 77.2647ZM69.6779 77.2647C69.6779 76.5916 69.4779 75.9335 69.1033 75.3738C68.7286 74.8141 68.1961 74.3779 67.573 74.1203C66.95 73.8627 66.2644 73.7952 65.603 73.9266C64.9416 74.0579 64.334 74.3821 63.8571 74.8581C63.3803 75.334 63.0555 75.9405 62.924 76.6007C62.7924 77.2609 62.8599 77.9453 63.118 78.5672C63.3761 79.1891 63.8131 79.7207 64.3738 80.0947C64.9346 80.4686 65.5938 80.6683 66.2682 80.6683C67.1724 80.668 68.0396 80.3093 68.679 79.6711C69.3184 79.0329 69.6777 78.1673 69.6779 77.2647V77.2647ZM127.09 76.2013L125.268 75.7026C124.069 75.3909 123.603 75.024 123.603 74.3918C123.603 73.7755 124.26 73.3445 125.199 73.3445C126.093 73.3445 126.794 73.9287 126.794 74.6767V74.7461H129.672V74.6767C129.672 72.4771 127.875 70.9989 125.199 70.9989C122.549 70.9989 120.624 72.4753 120.624 74.5108C120.624 76.0942 121.675 77.2875 123.509 77.7826L125.254 78.2581C126.58 78.625 127.072 79.0311 127.072 79.7594C127.072 80.5271 126.361 81.0435 125.3 81.0435C124.196 81.0435 123.452 80.3453 123.452 79.3088V79.2393H120.397V79.3088C120.397 81.7951 122.403 83.5334 125.275 83.5334C128.043 83.5334 130.052 81.8361 130.052 79.4994C130.052 78.3529 129.538 76.8533 127.09 76.2015V76.2013ZM83.8967 71.2039H87.0191V83.3255H83.8967V82.2996C82.8379 83.1038 81.5428 83.5364 80.2124 83.5304C78.5505 83.526 76.9582 82.8639 75.7847 81.6894C74.6111 80.5148 73.9521 78.9236 73.9521 77.2648C73.9521 75.6059 74.6111 74.0148 75.7847 72.8402C76.9582 71.6656 78.5505 71.0036 80.2124 70.9991C81.5429 70.9931 82.8381 71.4257 83.8969 72.2298L83.8967 71.2039ZM83.8967 77.2647C83.8967 76.5916 83.6967 75.9335 83.3221 75.3738C82.9474 74.8141 82.4149 74.3779 81.7918 74.1203C81.1688 73.8627 80.4832 73.7952 79.8218 73.9266C79.1604 74.0579 78.5528 74.382 78.0759 74.858C77.5991 75.334 77.2743 75.9405 77.1428 76.6007C77.0112 77.2609 77.0787 77.9453 77.3368 78.5672C77.5948 79.1891 78.0319 79.7206 78.5926 80.0946C79.1533 80.4686 79.8126 80.6683 80.4869 80.6683C80.9347 80.6683 81.3781 80.5803 81.7918 80.4092C82.2055 80.2382 82.5814 79.9875 82.898 79.6714C83.2147 79.3554 83.4658 78.9802 83.6372 78.5672C83.8085 78.1543 83.8967 77.7117 83.8967 77.2647ZM98.2939 66.8903H101.416V83.3273H98.2939V82.3014C97.235 83.1056 95.9398 83.5382 94.6094 83.5321C93.7837 83.5343 92.9656 83.3739 92.2021 83.06C91.4386 82.7461 90.7446 82.2849 90.16 81.7029C89.5753 81.1209 89.1115 80.4294 88.795 79.6681C88.4785 78.9068 88.3156 78.0907 88.3156 77.2665C88.3156 76.4423 88.4785 75.6261 88.795 74.8648C89.1115 74.1036 89.5753 73.4121 90.16 72.8301C90.7446 72.248 91.4386 71.7869 92.2021 71.473C92.9656 71.1591 93.7837 70.9986 94.6094 71.0008C95.9398 70.9948 97.235 71.4274 98.2939 72.2315V66.8903ZM98.2939 77.2647C98.2939 76.5916 98.0939 75.9335 97.7192 75.3738C97.3446 74.8141 96.812 74.3779 96.189 74.1203C95.566 73.8627 94.8804 73.7952 94.2189 73.9266C93.5575 74.0579 92.95 74.382 92.4731 74.858C91.9962 75.334 91.6715 75.9405 91.5399 76.6007C91.4084 77.2609 91.4759 77.9453 91.7339 78.5672C91.992 79.1891 92.429 79.7206 92.9898 80.0946C93.5505 80.4686 94.2097 80.6683 94.8841 80.6683C95.7883 80.668 96.6554 80.3093 97.2948 79.6711C97.9342 79.0328 98.2935 78.1673 98.2939 77.2647V77.2647ZM115.913 83.3256H119.036V71.2039H115.913V83.3256ZM117.475 66.4094C116.404 66.4094 115.583 67.2536 115.583 68.3222C115.588 68.8197 115.79 69.2952 116.144 69.6453C116.498 69.9954 116.976 70.1918 117.475 70.1918C117.973 70.1918 118.451 69.9954 118.805 69.6453C119.16 69.2952 119.361 68.8197 119.366 68.3222C119.366 67.2536 118.545 66.4094 117.475 66.4094V66.4094ZM143.548 77.2647C143.548 78.5039 143.18 79.7153 142.49 80.7457C141.8 81.7761 140.82 82.5792 139.673 83.0534C138.526 83.5276 137.264 83.6517 136.046 83.41C134.829 83.1682 133.71 82.5715 132.832 81.6952C131.955 80.8189 131.357 79.7025 131.115 78.4871C130.872 77.2717 130.997 76.0119 131.472 74.867C131.947 73.7221 132.751 72.7435 133.784 72.0551C134.816 71.3666 136.029 70.9991 137.271 70.9991C138.095 70.9991 138.911 71.1611 139.673 71.476C140.435 71.7909 141.127 72.2524 141.71 72.8342C142.292 73.416 142.755 74.1068 143.07 74.8669C143.386 75.6271 143.548 76.4419 143.548 77.2647V77.2647ZM140.681 77.2647C140.681 76.5916 140.481 75.9335 140.106 75.3738C139.731 74.8141 139.199 74.3779 138.576 74.1203C137.953 73.8627 137.267 73.7952 136.606 73.9266C135.944 74.0579 135.337 74.382 134.86 74.858C134.383 75.334 134.058 75.9405 133.927 76.6007C133.795 77.2609 133.863 77.9453 134.121 78.5672C134.379 79.1891 134.816 79.7206 135.377 80.0946C135.937 80.4686 136.597 80.6683 137.271 80.6683C138.175 80.668 139.042 80.3093 139.682 79.6711C140.321 79.0328 140.68 78.1673 140.681 77.2647ZM47.9777 66.8903H36V69.6705H40.4339V83.3255H43.5457V69.6705H47.9796V66.8903H47.9777ZM108.552 80.0057L105.773 71.204H102.494L106.66 83.3256H110.418L114.609 71.204H111.33L108.552 80.0057ZM148.123 73.2414V71.2039H144.993V83.3255H148.123V76.0572C148.123 74.741 148.969 74.0945 150.287 74.0945H152V71.204H150.537C149.391 71.2039 148.398 71.8005 148.123 73.2414V73.2414Z" fill="black"/>
<path d="M94.0536 64.8803C102.873 64.8803 110.023 57.7436 110.023 48.9401C110.023 40.1366 102.873 33 94.0536 33C85.2341 33 78.0845 40.1366 78.0845 48.9401C78.0845 57.7436 85.2341 64.8803 94.0536 64.8803Z" fill="#34E0A1"/>
<path d="M103.917 45.8304L105.844 43.7377H101.571C99.3559 42.2337 96.7392 41.4294 94.0606 41.4294C91.382 41.4294 88.7653 42.2337 86.5507 43.7377H82.2668L84.1938 45.8304C83.6232 46.3526 83.1613 46.982 82.8346 47.6825C82.5078 48.3831 82.3226 49.141 82.2895 49.9131C82.2565 50.6851 82.3762 51.4561 82.6419 52.1819C82.9075 52.9078 83.3139 53.5742 83.8378 54.1431C84.3617 54.712 84.9928 55.1723 85.6951 55.4976C86.3973 55.8229 87.1569 56.0068 87.9304 56.0388C88.7039 56.0708 89.4761 55.9503 90.2029 55.6842C90.9297 55.4181 91.5968 55.0116 92.1661 54.4879L94.0539 56.5397L95.9416 54.4897C96.5105 55.0165 97.1781 55.426 97.9059 55.6946C98.6338 55.9632 99.4076 56.0856 100.183 56.0548C100.958 56.0241 101.72 55.8407 102.424 55.5153C103.129 55.1899 103.761 54.7288 104.287 54.1586C104.812 53.5884 105.219 52.9202 105.485 52.1925C105.751 51.4647 105.87 50.6917 105.835 49.9179C105.801 49.1441 105.614 48.3846 105.285 47.6831C104.956 46.9817 104.491 46.352 103.917 45.8304H103.917ZM88.1637 54.1549C87.3753 54.1549 86.6046 53.9215 85.9491 53.4843C85.2936 53.0471 84.7827 52.4257 84.481 51.6987C84.1793 50.9716 84.1003 50.1716 84.2541 49.3998C84.4079 48.628 84.7876 47.919 85.345 47.3626C85.9025 46.8061 86.6128 46.4272 87.386 46.2737C88.1592 46.1201 88.9607 46.1989 89.689 46.5001C90.4174 46.8012 91.0399 47.3112 91.4779 47.9655C91.9159 48.6199 92.1497 49.3891 92.1497 50.1761C92.1497 50.6986 92.0467 51.216 91.8464 51.6988C91.6461 52.1815 91.3525 52.6202 90.9823 52.9896C90.6122 53.3591 90.1727 53.6522 89.6891 53.8521C89.2055 54.052 88.6871 54.1549 88.1637 54.1549V54.1549ZM94.0553 50.0603C94.0553 47.4422 92.1479 45.1945 89.6303 44.2346C91.0321 43.6514 92.5357 43.3512 94.0544 43.3512C95.573 43.3512 97.0766 43.6514 98.4784 44.2346C95.9627 45.1963 94.0553 47.4422 94.0553 50.0603ZM99.9451 54.1549C99.1568 54.1549 98.3861 53.9215 97.7306 53.4843C97.0751 53.0471 96.5642 52.4257 96.2625 51.6987C95.9608 50.9716 95.8818 50.1716 96.0356 49.3998C96.1894 48.628 96.5691 47.919 97.1265 47.3626C97.684 46.8061 98.3942 46.4272 99.1675 46.2737C99.9407 46.1201 100.742 46.1989 101.471 46.5001C102.199 46.8012 102.821 47.3112 103.259 47.9655C103.697 48.6199 103.931 49.3891 103.931 50.1761C103.931 50.6986 103.828 51.216 103.628 51.6988C103.428 52.1815 103.134 52.6202 102.764 52.9896C102.394 53.3591 101.954 53.6522 101.471 53.8521C100.987 54.052 100.469 54.1549 99.9451 54.1549V54.1549ZM99.9451 48.0887C99.5319 48.0887 99.1279 48.211 98.7843 48.4401C98.4407 48.6693 98.1729 48.995 98.0147 49.3761C97.8566 49.7572 97.8152 50.1766 97.8958 50.5811C97.9764 50.9857 98.1754 51.3573 98.4676 51.649C98.7598 51.9407 99.1321 52.1393 99.5375 52.2198C99.9428 52.3003 100.363 52.259 100.745 52.1011C101.126 51.9433 101.453 51.676 101.682 51.333C101.912 50.99 102.034 50.5868 102.034 50.1743C102.035 49.9004 101.981 49.6291 101.876 49.3761C101.771 49.123 101.617 48.8931 101.423 48.6994C101.229 48.5057 100.998 48.3521 100.745 48.2473C100.491 48.1425 100.22 48.0886 99.9451 48.0887V48.0887ZM90.253 50.1761C90.253 50.5886 90.1305 50.9918 89.9009 51.3347C89.6713 51.6777 89.345 51.945 88.9632 52.1029C88.5814 52.2607 88.1613 52.302 87.756 52.2215C87.3507 52.141 86.9784 51.9424 86.6862 51.6507C86.394 51.3591 86.195 50.9874 86.1144 50.5829C86.0338 50.1783 86.0752 49.759 86.2333 49.3779C86.3915 48.9968 86.6593 48.6711 87.0029 48.4419C87.3465 48.2128 87.7504 48.0905 88.1637 48.0905C88.4381 48.0904 88.7098 48.1443 88.9633 48.2491C89.2169 48.3538 89.4472 48.5075 89.6413 48.7011C89.8353 48.8948 89.9892 49.1248 90.0941 49.3779C90.1991 49.6309 90.2531 49.9022 90.253 50.1761V50.1761Z" fill="black"/>
</g>
<defs>
<clipPath id="clip0_24_69">
<rect width="116" height="54" fill="white" transform="translate(36 33)"/>
</clipPath>
</defs>
</svg>
