<svg width="188" height="120" viewBox="0 0 188 120" fill="none" xmlns="http://www.w3.org/2000/svg">
<path fill-rule="evenodd" clip-rule="evenodd" d="M93.6202 86.7265C91.5338 86.7265 90.4615 85.3542 90.4615 85.3542C88.7469 85.2791 75.3465 85.3167 75.3465 85.3167L74.0418 74.2101C74.0418 74.2101 65.7882 68.3424 65.1172 67.6657C61.1554 49.5382 75.4756 32.2566 93.6207 32.2566C111.766 32.2566 126.086 49.5382 122.124 67.6657C121.453 68.3424 113.2 74.2101 113.2 74.2101L111.895 85.3167C111.895 85.3167 98.4945 85.2791 96.7799 85.3542C96.7799 85.3542 95.7076 86.7265 93.6202 86.7265Z" fill="#ED1C24"/>
<path fill-rule="evenodd" clip-rule="evenodd" d="M93.6393 69.8354L92.3732 37.7752C90.8461 37.4609 86.9506 37.8381 84.8626 39.4097L90.9396 69.9612L82.65 40.6669C80.6628 40.6424 76.6527 44.0313 76.3549 45.0359L88.4465 71.0298L74.859 47.2676C73.519 47.7705 70.5895 53.2081 71.057 53.8399L86.2027 72.5386L70.6207 56.5713C70.6207 56.5713 68.595 59.683 69.916 64.9538L78.7175 71.3643L79.8194 80.1225H90.6102C90.6102 80.1225 92.3757 81.8103 93.6283 81.8103C94.8809 81.8103 96.6464 80.1225 96.6464 80.1225H107.437L108.539 71.3643L117.341 64.9538C118.662 59.683 116.636 56.5713 116.636 56.5713L101.054 72.5386L116.2 53.8399C116.667 53.2081 113.738 47.7705 112.398 47.2676L98.8101 71.0298L110.902 45.0359C110.604 44.0313 106.594 40.6424 104.607 40.6669L96.317 69.9612L102.394 39.4097C100.306 37.8381 96.4105 37.4609 94.8834 37.7752L93.6393 69.8354Z" fill="#FFD500"/>
</svg>
