<svg width="32" height="32" viewBox="0 0 32 32" fill="none" xmlns="http://www.w3.org/2000/svg">
<path d="M11.19 12.749H7.57646C7.41608 12.749 7.28613 12.879 7.28613 13.0393V24.6481C7.28613 24.8084 7.41608 24.9384 7.57646 24.9384H11.19C11.3504 24.9384 11.4803 24.8084 11.4803 24.6481V13.0393C11.4803 12.879 11.3504 12.749 11.19 12.749Z" fill="white"/>
<path d="M9.38448 6.97803C8.06966 6.97803 7 8.04653 7 9.35989C7 10.6738 8.06966 11.7427 9.38448 11.7427C10.6982 11.7427 11.767 10.6738 11.767 9.35989C11.7671 8.04653 10.6982 6.97803 9.38448 6.97803Z" fill="white"/>
<path d="M20.3812 12.4604C18.9299 12.4604 17.857 13.0844 17.2063 13.7933V13.0393C17.2063 12.879 17.0763 12.749 16.9159 12.749H13.4554C13.295 12.749 13.165 12.879 13.165 13.0393V24.648C13.165 24.8084 13.295 24.9383 13.4554 24.9383H17.061C17.2214 24.9383 17.3513 24.8084 17.3513 24.648V18.9044C17.3513 16.9689 17.877 16.2149 19.2262 16.2149C20.6956 16.2149 20.8124 17.4237 20.8124 19.004V24.6481C20.8124 24.8084 20.9423 24.9384 21.1027 24.9384H24.7097C24.87 24.9384 25 24.8084 25 24.6481V18.2805C25 15.4025 24.4512 12.4604 20.3812 12.4604Z" fill="white"/>
</svg>
