<svg width="77" height="73" viewBox="0 0 77 73" fill="none" xmlns="http://www.w3.org/2000/svg">
<path fill-rule="evenodd" clip-rule="evenodd" d="M68.0044 26.8023L75.4497 6.007C75.5051 5.85174 75.4338 5.67938 75.2847 5.60833L74.8676 5.40966L66.8508 17.4395L66.0193 10.6831C65.3528 5.2715 60.4113 1.42296 54.984 2.08741L9.55729 7.64773C4.12874 8.31087 0.268162 13.237 0.934688 18.6486C0.934688 18.65 0.934688 18.6526 0.934688 18.6539L6.51239 63.9338C7.17892 69.3455 12.1205 73.194 17.5477 72.5296L62.9691 66.9692C68.3977 66.3048 72.2583 61.3787 71.5918 55.9683L68.0044 26.8023V26.8023Z" fill="#F35321"/>
<path fill-rule="evenodd" clip-rule="evenodd" d="M20.8328 28.3655L34.7665 43.0412L71.139 1.77169C74.2908 -1.9137 77.9864 1.12303 75.9314 4.61764L41.3605 55.8013C38.5452 59.5104 31.9856 59.9446 29.5504 55.9487L15.2524 33.3653C11.7971 28.2076 17.0144 23.9853 20.8341 28.3655H20.8328Z" fill="white"/>
</svg>
