<svg width="27" height="25" viewBox="0 0 27 25" fill="none" xmlns="http://www.w3.org/2000/svg">
<path d="M11.4922 0C9.01172 0 6.99219 2.01953 6.99219 4.5C6.99219 8.48047 13.7422 12.2891 14.5117 12.7109L14.9922 12.9727L15.4727 12.7109C16.2422 12.2891 22.9922 8.48047 22.9922 4.5C22.9922 2.01953 20.9727 0 18.4922 0C17.082 0 15.8164 0.652344 14.9922 1.67578C14.168 0.652344 12.9023 0 11.4922 0ZM11.4922 2C12.8711 2 13.9922 3.12109 13.9922 4.5H15.9922C15.9922 3.12109 17.1133 2 18.4922 2C19.8711 2 20.9922 3.12109 20.9922 4.5C20.9922 6.48438 17.4961 9.21875 14.9922 10.6836C12.4883 9.21875 8.99219 6.48438 8.99219 4.5C8.99219 3.12109 10.1133 2 11.4922 2ZM7.50781 14C6.47656 14.0039 5.69141 14.2656 5.69141 14.2656L5.67188 14.2734L0 16.4492L1.98438 22.0195L6.91406 20.1289L14.0508 24.0586L26.375 18.9531L25.6094 17.1094L14.1719 21.8438L7.07031 17.9336L3.17969 19.4219L2.53906 17.6172L6.33594 16.1602C6.34375 16.1562 6.8125 16 7.50781 16C8.21094 16 9.03125 16.1562 9.73047 16.7891L9.74219 16.7969L9.74609 16.8008C10.7773 17.6953 11.5547 18.3203 12.6367 18.6602C13.7188 19 14.9453 19.0391 16.9961 19.0312L16.9883 17.0312C14.9766 17.0391 13.9258 16.9688 13.2383 16.75C12.5508 16.5391 12.0625 16.1602 11.0703 15.3008L11.0586 15.293C9.90234 14.2539 8.52734 13.9961 7.50781 14Z" fill="#4C5567"/>
</svg>
