<svg width="126" height="52" viewBox="0 0 126 52" fill="none" xmlns="http://www.w3.org/2000/svg">
<g clip-path="url(#clip0_2991_2176)">
<path d="M125.557 51.5377H0.732422V0.763916H125.575V51.5377H125.557Z" fill="#1170A8"/>
<path d="M3.16553 26.1509C3.16553 38.4233 28.3022 48.6175 63.1536 48.6175C98.005 48.6175 123.124 38.4233 123.124 26.1509C123.124 13.8785 97.9871 3.68433 63.1536 3.68433C28.3201 3.68433 3.16553 13.8785 3.16553 26.1509Z" fill="#FFDB00"/>
<path d="M42.9369 16.3867C42.6686 16.9242 42.6686 17.4438 42.6686 17.9812V24.6997C42.6686 24.6997 46.2646 20.0237 47.0876 18.9129C47.7138 18.0887 48.4831 16.9242 48.4831 16.3867H60.2195C59.4144 16.9242 58.5199 17.8917 57.7864 18.7875C57.1423 19.5758 53.4925 24.0368 53.4925 24.0368C53.4925 24.0368 58.9135 32.2961 59.6112 33.3531C60.0048 33.9264 60.4342 34.4639 60.9351 34.9476H47.4275C47.4275 34.4101 46.9087 33.3173 46.3362 32.4573C45.7637 31.5973 42.6686 26.8855 42.6686 26.8855V33.3531C42.6686 33.8906 42.6686 34.4101 42.9369 34.9476H31.6836C31.9519 34.4101 31.9519 33.8906 31.9519 33.3531V17.9812C31.9519 17.4438 31.9519 16.9242 31.6836 16.3867H42.9369ZM84.6048 16.3867H62.8852C63.1536 16.9242 63.1536 17.4438 63.1536 17.9812V33.3531C63.1536 33.8906 63.1536 34.4101 62.8852 34.9476H84.6048V29.8058C84.068 30.0745 83.5492 30.0745 83.0125 30.0745H73.8702V27.6379H82.6546V23.7143H73.8702V21.2599H83.0125C83.5492 21.2599 84.068 21.2599 84.6048 21.5107V16.3867ZM114.697 33.3531C114.876 33.9443 115.18 34.4818 115.574 34.9476H103.802C103.855 34.4101 103.659 33.8906 103.444 33.3531C103.444 33.3531 103.265 32.9231 103.014 32.2961L102.907 32.0273H96.1265L96.0191 32.314C96.0191 32.314 95.8223 32.8335 95.6434 33.371C95.4645 33.9085 95.2677 34.4281 95.3393 34.9655H86.0539C86.4296 34.4997 86.7159 33.9622 86.8948 33.371L92.4589 17.9992C92.6557 17.4617 92.8525 16.9421 92.7809 16.4046H108.471C108.328 16.9421 108.614 17.4617 108.811 17.9992C109.276 19.1637 114.304 32.314 114.697 33.3531ZM101.422 28.1037L99.7762 23.8039C99.6331 23.4098 99.5079 22.9977 99.4184 22.5856C99.3468 22.9977 99.2395 23.4098 99.0964 23.8039C99.0427 23.9831 98.345 25.8642 97.5399 28.1037H101.422ZM26.0837 17.9812C26.0837 17.4438 26.0837 16.9242 26.3521 16.3867H14.1147C14.3831 16.9242 14.3831 17.4438 14.3831 17.9812V33.3531C14.3831 33.8906 14.3831 34.4101 14.1147 34.9476H26.3521C26.0837 34.4101 26.0837 33.8906 26.0837 33.3531V17.9812ZM110.94 17.8558C110.904 19.1995 111.96 20.3282 113.32 20.3641C114.661 20.3999 115.789 19.3429 115.824 17.9812C115.824 17.9454 115.824 17.8917 115.824 17.8558C115.842 16.5301 114.805 15.4372 113.481 15.4193C113.445 15.4193 113.427 15.4193 113.391 15.4193C112.085 15.3655 110.994 16.3867 110.958 17.6946C110.922 17.7483 110.922 17.8021 110.94 17.8558H110.94ZM115.323 17.8558C115.359 18.9308 114.5 19.8445 113.427 19.8624C112.353 19.8982 111.441 19.0383 111.423 17.9633C111.423 17.9275 111.423 17.8917 111.423 17.8379C111.387 16.7988 112.192 15.9209 113.23 15.8851C113.284 15.8851 113.32 15.8851 113.373 15.8851C114.429 15.8671 115.305 16.7092 115.323 17.7663C115.323 17.8021 115.323 17.8379 115.323 17.8558ZM114.572 19.3249H114.089L113.516 18.2858H112.89V19.3249H112.461V16.3867H113.552C114.071 16.4047 114.465 16.8167 114.465 17.3363C114.465 17.6946 114.268 18.0171 113.946 18.1962L114.572 19.3249ZM113.481 17.8558C113.767 17.8738 114.017 17.6588 114.017 17.3721C114.017 17.0854 113.821 16.8346 113.534 16.8346C113.516 16.8346 113.499 16.8346 113.481 16.8346H112.89V17.8737H113.481" fill="#1170A8"/>
</g>
<defs>
<clipPath id="clip0_2991_2176">
<rect width="126" height="52" fill="white"/>
</clipPath>
</defs>
</svg>
