<svg width="2280" height="650" viewBox="0 0 2280 650" fill="none" xmlns="http://www.w3.org/2000/svg">
<path fill-rule="evenodd" clip-rule="evenodd" d="M325.032 649.737C145.79 649.737 0.294922 504.229 0.294922 325.013C0.294922 145.771 145.79 0.276123 325.032 0.276123C504.261 0.276123 649.756 145.771 649.756 325.013C649.743 504.229 504.248 649.737 325.032 649.737Z" fill="#00894B"/>
<path fill-rule="evenodd" clip-rule="evenodd" d="M325.032 627.598C158.448 627.598 23.498 492.634 23.498 325.013C23.498 158.429 158.448 23.4658 325.032 23.4658C492.666 23.4658 627.617 158.416 627.617 325.013C627.702 364.773 619.934 404.158 604.758 440.908C589.582 477.658 567.297 511.049 539.182 539.163C511.068 567.278 477.677 589.563 440.927 604.739C404.177 619.915 364.792 627.683 325.032 627.598Z" fill="white"/>
<path fill-rule="evenodd" clip-rule="evenodd" d="M325.032 39.2891C167.942 39.2891 39.3081 167.91 39.3081 325.013C39.3081 446.254 115.22 549.572 220.651 590.686C244.905 524.268 274.424 461.014 291.285 425.166C289.171 400.899 286.019 379.823 283.905 362.95C218.537 347.139 171.094 301.797 171.094 301.797L190.069 274.379C190.069 274.379 253.322 325 329.234 325C405.146 325 468.4 274.379 468.4 274.379L487.375 301.797C487.375 301.797 440.982 347.139 375.614 362.95C371.738 383.138 369.272 403.571 368.234 424.102C385.108 458.887 412.526 522.166 437.817 587.521C539.033 544.306 610.73 443.077 610.73 325.013C610.743 167.91 483.159 39.2891 325.032 39.2891Z" fill="#00894B"/>
<path fill-rule="evenodd" clip-rule="evenodd" d="M329.247 455.748C329.247 455.748 277.589 552.749 257.55 602.294C279.69 607.559 301.842 610.724 325.032 610.724C351.387 610.724 376.691 607.559 400.944 601.23C379.842 549.572 329.247 455.748 329.247 455.748Z" fill="#00894B"/>
<path fill-rule="evenodd" clip-rule="evenodd" d="M318.689 127.847C295.5 127.847 275.461 138.378 262.816 156.315C254.385 143.657 240.676 135.226 224.866 135.226C200.613 134.163 179.524 154.201 179.524 179.505V186.885C193.233 190.05 216.423 205.86 217.473 235.392C204.828 219.582 194.283 214.316 175.309 212.189C147.891 210.075 124.701 233.278 124.701 260.683C123.637 270.164 126.815 279.658 133.131 288.101C126.554 293.691 121.264 300.637 117.623 308.464C113.983 316.29 112.079 324.812 112.042 333.443C110.992 367.165 128.916 392.469 158.435 396.697C174.245 399.861 201.663 396.697 216.423 378.76C202.714 408.292 177.41 419.9 152.106 419.9C109.941 420.937 77.2573 382.988 78.3078 340.81C78.3078 318.671 88.8523 298.645 104.662 284.923C99.3967 274.379 96.232 263.847 96.232 251.189C97.2956 217.455 121.536 190.037 154.22 185.821V178.442C154.22 140.492 186.904 108.859 225.904 109.922C238.562 109.922 250.157 113.087 259.651 119.403C272.297 106.745 289.17 99.365 307.094 99.365C339.778 100.429 365.082 123.618 370.348 154.201C358.753 138.391 339.778 128.897 318.689 127.847ZM401.981 159.48C436.779 135.226 483.159 139.454 502.147 175.29C508.476 185.834 511.628 201.645 511.628 214.303C521.071 216.574 529.957 220.734 537.75 226.531C545.543 232.329 552.081 239.645 556.97 248.037C573.844 278.62 567.514 316.57 541.16 337.658C544.989 327.377 546.502 316.377 545.592 305.443C544.682 294.51 541.371 283.912 535.894 274.405C523.236 252.265 502.147 239.62 477.906 237.506C482.121 221.683 483.172 205.873 476.856 190.063C465.248 162.644 427.285 149.986 401.981 159.48Z" fill="white"/>
<path fill-rule="evenodd" clip-rule="evenodd" d="M315.538 272.291C315.538 257.531 327.133 244.873 340.842 244.873C354.551 244.873 366.146 257.531 366.146 272.291C366.146 275.456 366.146 277.557 365.095 280.721C370.361 272.291 372.475 260.683 370.361 250.152C366.146 225.898 345.057 211.139 322.918 214.303C300.778 218.518 284.968 241.708 289.183 264.898C293.398 289.152 314.487 304.962 337.677 300.747C339.791 299.683 340.842 299.683 342.956 298.633H340.842C327.133 298.646 315.538 287.051 315.538 272.291Z" fill="white"/>
<path fill-rule="evenodd" clip-rule="evenodd" d="M780.478 146.821H764.668V131.011H879.58V162.645H861.656V146.821H814.226V205.86H850.061V190.05H867.985V237.493H850.061V221.683H814.226V282.822H863.77V267.012H881.694V298.645H764.668V282.822H780.478V146.821ZM1904.36 175.29H1890.66V162.645H1984.49V187.948H1970.79V175.29H1931.78V222.733H1961.31V210.088H1975.02V249.088H1961.31V235.392H1931.78V286H1971.86V273.341H1986.61V298.645H1891.73V286H1904.36V175.29ZM1213.8 175.29H1201.17V162.645H1253.87V175.29H1241.22V286H1253.87V298.645H1201.17V286H1213.8V175.29ZM1466.84 159.48C1506.89 159.48 1534.32 188.999 1534.32 230.113C1534.32 272.291 1506.89 301.81 1466.84 301.81C1427.83 301.81 1399.36 272.291 1399.36 230.113C1399.36 188.999 1427.83 159.48 1466.84 159.48ZM1466.84 289.152C1486.88 289.152 1504.79 270.177 1504.79 229.063C1504.79 200.594 1491.08 172.125 1466.84 172.125C1445.76 172.125 1428.86 192.151 1428.86 230.113C1428.86 270.177 1446.8 289.152 1466.84 289.152ZM1787.33 298.645H1782.07L1735.69 203.759V298.645H1707.21V286H1719.88V175.29H1707.21V162.645H1745.18L1790.5 255.417L1834.78 162.645H1874.85V175.29H1862.2V286H1874.85V298.645H1833.74V199.544L1787.33 298.645ZM2158.46 162.645H2279.71V187.948H2264.93V175.29H2232.26V286H2244.92V298.645H2192.21V286H2204.84V175.29H2172.17V187.948H2158.46V162.645ZM1086.23 397.76H1073.58V384.038H1167.42V410.406H1153.72V397.76H1114.7V445.191H1143.16V432.545H1157.92V470.495H1143.16V457.849H1114.7V508.457H1154.76V495.799H1168.46V521.103H1073.58V508.457H1086.23V397.76ZM1473.17 384.038H1531.16V397.76H1518.5L1545.9 434.646L1571.21 397.76H1557.5V384.038H1601.78V397.76H1589.14L1552.23 450.457V508.457H1564.9V521.103H1512.15V508.457H1524.83V450.457L1485.81 397.76H1473.17V384.038ZM834.251 347.152H852.175L911.214 505.293H925.973V521.103H860.606V505.293H876.416L860.606 464.179H811.048L796.288 505.293H811.048V521.103H764.655V505.293H778.364L834.251 347.152ZM855.34 448.355L835.302 395.646L816.327 448.355H855.34ZM1386.71 286L1351.9 234.341C1366.67 228.025 1375.1 213.266 1375.1 200.607C1375.1 175.303 1358.23 162.657 1328.72 162.657H1274.95V175.303H1287.6V286.013H1274.95V298.671H1315.03V241.734H1327.67L1363.52 298.671H1398.33V286.013L1386.71 286ZM1320.29 229.063H1315.03V175.29H1320.29C1335.04 175.29 1348.74 180.569 1348.74 203.759C1348.75 219.582 1335.04 229.063 1320.29 229.063ZM930.188 162.645L1017.7 257.531V175.29H1005.05V162.645H1046.16V175.29H1033.51V298.645H1018.76L930.188 203.759V286H943.897V298.645H902.783V286H915.429V175.29H902.783V162.645H930.188ZM1577.54 162.645L1663.99 257.531V175.29H1651.33V162.645H1692.47V175.29H1679.8V298.645H1666.09L1577.54 203.759V286H1590.18V298.645H1549.07V286H1561.74V175.29H1549.07V162.645H1577.54ZM2029.83 162.645L2117.35 257.531V175.29H2104.69V162.645H2145.81V175.29H2133.16V298.645H2118.39L2029.83 203.759V286H2043.54V298.645H2002.42V286H2015.07V175.29H2002.42V162.645H2029.83ZM1216.96 384.038L1304.47 479.989V397.76H1291.82V384.038H1332.94V397.76H1320.29V521.103H1305.53L1218.01 426.216V508.457H1230.67V521.103H1189.56V508.457H1202.2V397.76H1189.56V384.038H1216.96ZM1059.87 175.29V162.645H1114.7V175.29H1100.99L1131.57 249.088L1157.92 175.29H1145.28V162.645H1187.46V175.29H1173.73L1127.35 301.81H1121.03L1073.58 175.29H1059.87ZM1464.74 508.457C1453.13 517.925 1433.1 524.267 1413.07 524.267C1373.01 524.267 1343.48 494.761 1343.48 455.748C1343.48 420.937 1365.62 381.937 1418.33 381.937C1428.86 381.937 1437.33 384.038 1447.86 387.203L1449.96 379.836H1459.46V420.95H1447.85C1444.69 405.14 1433.08 394.609 1416.22 394.609C1390.91 394.609 1376.17 415.685 1376.17 452.597C1376.17 495.812 1400.41 511.622 1420.45 511.622C1435.19 511.622 1452.07 504.255 1464.72 494.774L1464.74 508.457ZM1047.23 420.937H1033.52C1028.25 403.026 1012.44 394.596 997.67 394.596C973.417 394.596 957.606 417.773 957.606 453.621C957.606 489.47 974.48 511.609 1002.95 511.609C1013.48 511.609 1018.76 508.47 1018.76 498.963V465.216H1006.1V452.571H1059.87V465.216H1047.23V517.925C1032.12 522.102 1016.51 524.231 1000.83 524.254C952.341 524.254 925.973 491.571 925.973 452.571C925.973 410.393 954.442 381.924 997.67 381.924C1010.33 381.924 1020.87 384.025 1032.47 388.254L1035.63 379.823H1047.23V420.937Z" fill="#00894B"/>
</svg>
