<svg width="73" height="74" viewBox="0 0 73 74" fill="none" xmlns="http://www.w3.org/2000/svg">
<path fill-rule="evenodd" clip-rule="evenodd" d="M68.4626 25.9404L67.5681 18.3402L66.5463 9.66634C66.3898 8.33752 65.977 7.053 65.3314 5.88616C64.6859 4.71931 63.8202 3.693 62.7839 2.86583C61.7475 2.03866 60.5608 1.42685 59.2915 1.06533C58.0222 0.703813 56.6952 0.599675 55.3862 0.758865L9.45398 6.33489C6.8111 6.65612 4.40211 8.0298 2.75679 10.1538C1.11147 12.2779 0.364548 14.9783 0.68028 17.6613L6.17311 64.2893C6.32936 65.6181 6.74195 66.9026 7.38731 68.0695C8.03266 69.2365 8.89814 70.2629 9.93432 71.0902C10.9705 71.9176 12.1571 72.5296 13.4263 72.8913C14.6955 73.2531 16.0224 73.3574 17.3314 73.1985L63.2636 67.6225C64.5726 67.4635 65.8379 67.0444 66.9873 66.389C68.1366 65.7337 69.1476 64.8549 69.9624 63.8029C70.7772 62.7509 71.3799 61.5462 71.7361 60.2577C72.0922 58.9693 72.1949 57.6222 72.0382 56.2934L68.4626 25.9404Z" fill="#005EB8"/>
<path d="M36.578 18.9524C37.3416 18.9524 38.0359 19.5078 38.2441 20.202L43.7285 41.3065L45.6029 37.3494C46.2277 35.961 47.6162 35.0585 49.1435 35.0585H57.1965C58.099 35.0585 58.8627 35.8221 58.8627 36.7246C58.8627 37.6965 58.099 38.3908 57.1965 38.3908H49.1435C48.9352 38.3908 48.727 38.5296 48.6575 38.7379L44.7699 46.9297C44.4922 47.5546 43.7979 47.9017 43.1037 47.8322C42.4095 47.7628 41.8541 47.2769 41.6458 46.6521L36.7862 27.9773L31.5795 53.1778C31.4407 53.9414 30.7465 54.4968 29.9828 54.4968C29.2192 54.5662 28.5249 54.0803 28.3167 53.3166L24.3596 38.8073C24.2902 38.599 24.0819 38.3908 23.8042 38.3908H16.0983C15.1264 38.3908 14.4321 37.6965 14.4321 36.7246C14.4321 35.8221 15.1264 35.0585 16.0983 35.0585H23.8042C25.5398 35.0585 27.0671 36.2386 27.553 37.9742L29.7051 45.7496L34.9813 20.3408C35.1201 19.5772 35.8143 19.0218 36.578 18.9524Z" fill="white"/>
</svg>
