<?xml version="1.0" encoding="UTF-8"?>
<svg id="Layer_2" xmlns="http://www.w3.org/2000/svg" viewBox="0 0 198.43 36.05">
  <defs>
    <style>
      .cls-1 {
        fill: #263146;
      }

      .cls-2 {
        fill: #fff;
      }

      .cls-2, .cls-3 {
        fill-rule: evenodd;
      }

      .cls-3 {
        fill: #f15625;
      }
    </style>
  </defs>
  <g id="Layer_1-2" data-name="Layer_1">
    <g>
      <g>
        <path class="cls-3" d="M33.28,13.28l3.69-10.34c.03-.08,0-.16-.08-.2l-.21-.1-3.97,5.98-.41-3.36c-.33-2.69-2.78-4.6-5.47-4.27L4.31,3.76C1.62,4.09-.29,6.53.04,9.22c0,0,0,0,0,0l2.76,22.51c.33,2.69,2.78,4.6,5.47,4.27l22.51-2.76c2.69-.33,4.6-2.78,4.27-5.47l-1.78-14.5Z"/>
        <path class="cls-2" d="M9.9,14.05l6.91,7.3L34.83.83c1.56-1.83,3.39-.32,2.37,1.41l-17.13,25.44c-1.4,1.84-4.65,2.06-5.85.07l-7.09-11.23c-1.71-2.56.87-4.66,2.77-2.49Z"/>
      </g>
      <g>
        <path class="cls-1" d="M56.9,19.62c-.56-.4-1.15-.73-1.77-.98-.63-.25-1.21-.44-1.76-.59l-1.88-.51c-.48-.13-.99-.3-1.54-.52s-1.02-.53-1.42-.92c-.4-.39-.59-.9-.59-1.53,0-.58.16-1.09.49-1.54.33-.45.79-.8,1.39-1.05.6-.26,1.29-.38,2.08-.38,1.12,0,2.05.25,2.8.74.75.49,1.17,1.19,1.28,2.09h2.57c-.03-.98-.33-1.86-.89-2.63-.56-.77-1.33-1.39-2.3-1.83-.97-.45-2.1-.67-3.36-.67s-2.36.22-3.36.67c-1,.45-1.79,1.08-2.37,1.89-.58.81-.87,1.76-.87,2.84,0,1.28.43,2.32,1.28,3.13s2.06,1.43,3.61,1.86l2.27.64c.68.18,1.3.39,1.86.63.56.24,1,.55,1.33.93.33.37.5.86.5,1.44,0,.65-.19,1.21-.57,1.7-.38.49-.91.87-1.57,1.14-.66.27-1.41.41-2.25.41-.74,0-1.43-.11-2.07-.34s-1.16-.57-1.56-1.03c-.4-.46-.64-1.04-.71-1.75h-2.66c.07,1.11.39,2.07.97,2.88.58.81,1.38,1.44,2.41,1.88,1.03.44,2.23.66,3.62.66,1.47,0,2.73-.24,3.77-.72,1.04-.48,1.83-1.14,2.38-1.98s.82-1.78.82-2.83c0-.88-.18-1.62-.53-2.23-.35-.61-.81-1.12-1.37-1.52Z"/>
        <path class="cls-1" d="M78.5,14.59c-.68-.36-1.44-.54-2.27-.54-.75,0-1.45.14-2.09.43-.65.29-1.2.69-1.65,1.22-.34.39-.57.86-.75,1.37-.23-.83-.6-1.52-1.13-2.06-.64-.64-1.48-.96-2.52-.96-.61,0-1.2.13-1.77.39-.57.26-1.07.65-1.49,1.16-.32.39-.55.88-.74,1.42l-.03-2.71h-2.41v14.27h2.5v-8.94c0-.73.14-1.35.43-1.84s.66-.87,1.14-1.12c.47-.25.98-.38,1.53-.38.78,0,1.43.24,1.95.71.51.48.77,1.1.77,1.88v9.69h2.48v-9.24c0-.6.12-1.12.36-1.58.24-.46.59-.81,1.04-1.07.45-.26.98-.39,1.6-.39.75,0,1.4.22,1.96.65.56.43.84,1.15.84,2.16v9.47h2.51v-9.63c0-1.1-.2-2.01-.61-2.73-.4-.72-.95-1.27-1.63-1.63Z"/>
        <path class="cls-1" d="M93.25,15.02c-.57-.35-1.16-.58-1.79-.71-.63-.12-1.19-.19-1.7-.19-.77,0-1.54.11-2.3.33-.76.22-1.45.58-2.07,1.08-.62.5-1.1,1.18-1.45,2.04l2.39.71c.14-.33.36-.65.66-.96.29-.31.67-.57,1.14-.77.47-.2,1.03-.31,1.69-.31s1.17.11,1.6.32.75.52.96.91.32.88.32,1.45v.08c0,.34-.13.58-.38.73-.26.15-.65.25-1.18.31-.53.06-1.22.14-2.07.26-.66.08-1.32.19-1.98.34-.66.15-1.25.37-1.79.67-.54.3-.96.71-1.28,1.22-.32.51-.48,1.18-.48,2,0,.94.21,1.73.64,2.38s1.01,1.14,1.75,1.48c.74.34,1.56.5,2.46.5.79,0,1.47-.12,2.04-.34.57-.23,1.03-.52,1.39-.88.36-.35.63-.7.8-1.04h.15v1.94h2.44v-9.43c0-1.08-.18-1.95-.55-2.61-.37-.66-.83-1.16-1.4-1.51ZM92.71,23.43c0,.56-.15,1.1-.45,1.61-.3.52-.74.93-1.31,1.26-.57.32-1.26.49-2.08.49-.55,0-1.04-.08-1.47-.25-.43-.17-.76-.41-1.01-.73-.25-.32-.37-.72-.37-1.2,0-.52.14-.93.42-1.24.28-.31.65-.55,1.12-.71.47-.17.97-.28,1.51-.35.22-.03.52-.06.88-.1.37-.04.74-.1,1.13-.17.39-.07.73-.14,1.03-.23s.5-.18.61-.29v1.93Z"/>
        <path class="cls-1" d="M104.64,14.1c-.84,0-1.6.22-2.27.66-.67.44-1.14,1.03-1.39,1.77h-.15v-2.23h-2.43v14.27h2.5v-8.83c0-.64.15-1.2.45-1.69.3-.49.72-.87,1.24-1.16.53-.28,1.13-.42,1.8-.42.3,0,.59.02.87.05.28.03.46.06.55.09v-2.46c-.15,0-.33-.02-.57-.03s-.44-.02-.61-.02Z"/>
        <path class="cls-1" d="M113.58,26.53c-.23.03-.42.05-.56.05-.59,0-1.01-.14-1.26-.43-.25-.29-.38-.73-.38-1.35v-8.41h2.9v-2.09h-2.9v-3.4h-2.5v3.4h-2.12v2.09h2.12v8.62c0,1.18.35,2.1,1.05,2.76.7.66,1.68.98,2.94.98.32,0,.63-.02.95-.06.31-.04.6-.11.87-.21l-.47-2.05c-.19.03-.4.07-.62.1Z"/>
        <path class="cls-1" d="M128.42,19.62c-.56-.4-1.15-.73-1.77-.98-.63-.25-1.21-.44-1.76-.59l-1.88-.51c-.48-.13-.99-.3-1.54-.52s-1.02-.53-1.42-.92c-.4-.39-.59-.9-.59-1.53,0-.58.16-1.09.49-1.54.33-.45.79-.8,1.39-1.05.6-.26,1.29-.38,2.08-.38,1.11,0,2.05.25,2.8.74s1.17,1.19,1.28,2.09h2.57c-.03-.98-.33-1.86-.89-2.63-.56-.77-1.33-1.39-2.3-1.83-.97-.45-2.1-.67-3.36-.67s-2.36.22-3.36.67c-1,.45-1.79,1.08-2.37,1.89-.58.81-.88,1.76-.88,2.84,0,1.28.43,2.32,1.28,3.13s2.06,1.43,3.61,1.86l2.27.64c.68.18,1.3.39,1.86.63.56.24,1,.55,1.33.93.33.37.5.86.5,1.44,0,.65-.19,1.21-.57,1.7s-.91.87-1.57,1.14-1.41.41-2.25.41c-.74,0-1.43-.11-2.07-.34-.64-.23-1.16-.57-1.56-1.03-.4-.46-.64-1.04-.71-1.75h-2.66c.07,1.11.39,2.07.97,2.88.58.81,1.38,1.44,2.41,1.88s2.23.66,3.62.66c1.47,0,2.73-.24,3.77-.72,1.04-.48,1.83-1.14,2.38-1.98s.82-1.78.82-2.83c0-.88-.18-1.62-.53-2.23-.35-.61-.81-1.12-1.37-1.52Z"/>
        <path class="cls-1" d="M142.18,22.82c0,.78-.15,1.45-.46,2.01s-.72.98-1.25,1.27-1.12.43-1.78.43c-.97,0-1.74-.3-2.3-.91-.56-.6-.84-1.44-.84-2.51v-8.81h-2.5v9.06c0,1.19.2,2.19.61,2.99.4.8.97,1.4,1.7,1.8.73.4,1.58.6,2.55.6,1.06,0,2-.28,2.81-.84.64-.44,1.16-1.13,1.56-2.04v2.7h2.42v-14.27h-2.51v8.52Z"/>
        <path class="cls-1" d="M154.33,14.1c-.84,0-1.6.22-2.27.66-.67.44-1.14,1.03-1.39,1.77h-.15v-2.23h-2.43v14.27h2.5v-8.83c0-.64.15-1.2.45-1.69.3-.49.72-.87,1.24-1.16.53-.28,1.13-.42,1.8-.42.3,0,.59.02.87.05.28.03.46.06.55.09v-2.46c-.15,0-.33-.02-.57-.03s-.44-.02-.61-.02Z"/>
        <path class="cls-1" d="M164.47,22.63c-.32.88-.59,1.77-.81,2.65-.09.36-.19.69-.28,1.04-.09-.35-.19-.69-.28-1.04-.23-.88-.5-1.76-.82-2.65l-2.95-8.32h-2.72l5.43,14.27h2.67l5.43-14.27h-2.71l-2.95,8.32Z"/>
        <path class="cls-1" d="M181.84,15.74c-.6-.57-1.28-.98-2.02-1.23-.75-.25-1.51-.38-2.29-.38-1.31,0-2.45.32-3.43.95s-1.73,1.5-2.26,2.61c-.53,1.11-.8,2.4-.8,3.88s.27,2.74.82,3.84c.54,1.1,1.32,1.95,2.32,2.57,1,.61,2.21.92,3.6.92,1,0,1.89-.16,2.67-.47s1.45-.74,1.98-1.29.91-1.18,1.14-1.91l-2.39-.63c-.18.47-.43.86-.75,1.18-.32.32-.71.56-1.16.72-.45.16-.94.24-1.49.24-.84,0-1.58-.18-2.22-.55-.64-.37-1.13-.91-1.49-1.62-.32-.64-.48-1.42-.52-2.31h10.23v-.97c0-1.3-.18-2.41-.53-3.32-.35-.91-.83-1.65-1.43-2.21ZM175.4,16.89c.59-.4,1.3-.61,2.14-.61s1.53.2,2.09.59c.56.4.98.95,1.26,1.65.2.51.31,1.09.36,1.71h-7.67c.04-.62.19-1.21.45-1.76.31-.66.77-1.18,1.36-1.59Z"/>
        <path class="cls-1" d="M195.72,14.3l-2.99,8.32c-.32.88-.59,1.77-.81,2.65-.09.35-.19.67-.28,1.01-.09-.34-.19-.66-.27-1.01-.22-.88-.49-1.76-.81-2.66l-2.95-8.32h-2.72l5.44,14.35-.37,1.12c-.2.66-.46,1.14-.75,1.46-.3.32-.64.5-1.02.56-.38.05-.81.02-1.29-.1l-.28-.08-.63,2.12c.14.07.37.13.69.19.31.06.68.09,1.11.09.71,0,1.34-.12,1.9-.36.56-.24,1.04-.62,1.45-1.12.41-.5.76-1.13,1.05-1.89l6.24-16.34h-2.71Z"/>
      </g>
    </g>
  </g>
</svg>